<?xml version="1.0" encoding="utf-8"?>
<!-- Generator: Adobe Illustrator 22.0.0, SVG Export Plug-In . SVG Version: 6.00 Build 0)  -->
<svg version="1.1" id="Livello_1" xmlns="http://www.w3.org/2000/svg" xmlns:xlink="http://www.w3.org/1999/xlink" x="0px" y="0px"
	 viewBox="0 0 800 800" style="enable-background:new 0 0 800 800;" xml:space="preserve">
<g>
	<path d="M599.6,402.9c-0.4,33.7-0.6,67.5-1.1,101.2c-0.5,37.5-1.2,75-2,112.5c-0.4,19.2-1.1,38.5-2,57.7
		c-1.1,21.2-7,40.8-20.9,57.4c-12.6,15.1-28.9,24.6-47.6,30.2c-11.6,3.5-23.5,5.3-35.7,5.3c-43.9-0.1-87.8,0.1-131.7-0.1
		C336,767,315,760.9,296,748.6c-22.6-14.7-35.8-35.7-40.3-62c-1.9-11.3-2.3-22.8-3.1-34.3c-0.9-12.7-1.5-25.4-2.3-38.2
		c-0.7-12.6-1.5-25.1-2.3-37.7c-0.9-15.4-1.9-30.8-2.8-46.1c-0.9-14.9-1.8-29.8-2.7-44.6c-0.7-12.1-1.5-24.3-2.2-36.4
		c-0.7-12.4-1.5-24.8-1.8-37.2c-1-34.7-6.3-68.8-16.7-101.9c-8.7-27.8-16.1-55.9-21.7-84.4c-2.6-13.5-5-27-6.8-40.5
		c-1.1-8.1-1.1-16.4-1.1-24.7c0-9.7,0.3-19.5,0.9-29.2c1.3-23.7,7.9-45.7,22.9-64.5c13.7-17.1,31.8-26.5,53.5-28.8
		c4.6-0.5,9.3-0.6,14-0.6c40.7,0,81.5,0,122.2,0.1c41,0.1,82,0.1,123,0.6c20,0.3,36.2,9.2,48.8,24.6c10.5,12.8,16.1,27.8,19.6,43.8
		c2.7,12.4,4,25,4,37.7c-0.1,52.7-0.2,105.5-0.5,158.2C600.3,335.9,599.8,369.4,599.6,402.9C599.5,402.9,599.5,402.9,599.6,402.9z
		 M409.6,659.5c0-33.2-26.7-60-59.8-60c-33.2,0-60.1,26.9-60,60.1c0.1,31.9,25.4,59.6,60,59.9C382.7,719.7,409.6,692.6,409.6,659.5z
		 M565.6,659.3c0-33.1-26.8-59.8-60-59.8c-33,0-59.9,26.9-59.9,59.9c0,33.1,27.1,60.2,60.1,60C539,719.3,565.6,692.5,565.6,659.3z
		 M505.8,560.3c33.2-0.1,59.9-26.9,59.8-60.3c-0.1-33.1-26.9-59.7-60.1-59.6c-33.1,0.1-59.9,27-59.7,60.1
		C445.8,533.6,472.7,560.4,505.8,560.3z M346.7,560.3c33.1,0,59.9-26.8,59.9-59.9c0-33.2-26.6-59.9-59.8-60
		c-33.3,0-60.1,26.8-60.1,60C286.8,533.5,313.6,560.3,346.7,560.3z M396.1,95.4c-26.3,0-47.5,21.1-47.6,47.4
		c0,26.2,21.3,47.6,47.5,47.6c26.2,0,47.5-21.3,47.6-47.5C443.5,116.7,422.3,95.5,396.1,95.4z M332.5,268.8
		c0-26.2-21.3-47.4-47.6-47.4c-26.3,0-47.5,21.2-47.4,47.5c0,26.2,21.4,47.5,47.6,47.5C311.2,316.4,332.5,295,332.5,268.8z
		 M451.5,268.9c0-26.2-21.2-47.4-47.5-47.4c-26.3,0-47.5,21.2-47.5,47.5c0,26.2,21.4,47.5,47.5,47.5
		C430.2,316.4,451.5,295.1,451.5,268.9z M571.6,142.8c0-26.3-21.2-47.4-47.5-47.4c-26.1,0-47.4,21.2-47.5,47.3
		c-0.1,26.2,21.4,47.8,47.7,47.8C550.3,190.5,571.6,169.1,571.6,142.8z M571.6,269c0-26.4-21.1-47.5-47.4-47.6
		c-26.2,0-47.7,21.2-47.7,47.4c0,26.2,21.6,47.8,47.7,47.7C550.3,316.4,571.5,295.1,571.6,269z M269,95.4
		c-26.4,0-47.5,21.1-47.6,47.4c0,26.2,21.2,47.6,47.3,47.7c26.2,0,47.8-21.5,47.7-47.7C316.4,116.7,295.1,95.5,269,95.4z"/>
</g>
</svg>
