<?xml version="1.0" encoding="utf-8"?>
<!-- Generator: Adobe Illustrator 22.0.0, SVG Export Plug-In . SVG Version: 6.00 Build 0)  -->
<svg version="1.1" xmlns="http://www.w3.org/2000/svg" xmlns:xlink="http://www.w3.org/1999/xlink" x="0px" y="0px"
	 viewBox="0 0 800 800" style="enable-background:new 0 0 800 800;" xml:space="preserve">
<style type="text/css">
	.st0{display:none;}
	.st1{display:inline;}
	.st2{fill:#FFFFFF;}
</style>
<g id="Livello_1">
	<g>
		<path d="M72.7,399.5c0-179.8,146-325.9,325.8-325.6C578.7,74.2,724,219.9,724,399.8c0,179.6-146.1,325.5-325.6,325.4
			C218.4,725.1,72.8,579.5,72.7,399.5z M320.5,650.7c3.1-7,5.8-12.9,8.2-19c1.1-2.8,2.4-3.7,5.5-3.7c42.4,0.1,84.8,0.1,127.3,0
			c2.7,0,4.3,0.7,5.5,3.2c2.1,4.7,4.9,9.2,6.9,13.9c1.6,4.1,3.7,4.6,7.7,3.2c61.6-21.4,109.6-59.8,143.3-115.6
			c18.2-30,29.3-62.7,34.5-97.3c0.5-3.4,0-5.6-3.4-7.5c-9-5.1-17.7-10.8-26.6-16c-2.4-1.4-3.2-2.9-2.9-5.6
			c1.7-22.5,3.2-44.9,4.7-67.4c0.2-2.6,1.2-3.9,3.7-4.6c5.9-1.8,11.7-4,17.5-6c-0.1-0.9-0.1-1.3-0.3-1.7
			c-29.2-103-118.9-180.2-228.8-190.5c-46.5-4.4-91.4,2.8-133.8,22.6c-71.2,33.4-118.7,87.9-142.8,162.7c-1,3.2-0.3,4.5,2.5,5.8
			c4.4,2,8.6,4.7,13.1,6.5c4.3,1.7,5.8,4.5,6.1,9c1.5,20.8,3.3,41.7,5.1,62.5c0.2,2.5-0.4,4-2.5,5.4c-8.3,5.4-16.5,11.1-24.7,16.6
			c-8.9,6-9.1,6-7,16.5c17.5,88.5,66.7,152.9,147.5,192.9C297.2,642.1,308.8,646,320.5,650.7z"/>
		<path d="M398.6,310.8c62.7,0.1,113.4,50.9,113.2,113.6c-0.1,62.8-50.8,113.3-113.6,113.1c-62.8-0.2-113.3-51-113-113.7
			C285.4,361.3,336.1,310.8,398.6,310.8z M397.9,468.1c19,1.5,43.7-14.8,44-43.4c0.2-24.1-19.7-44-43.8-43.9
			c-24.1,0-43.9,19.9-43.8,44C354.3,448.8,373.8,468.2,397.9,468.1z"/>
		<path d="M441.5,537.1c6.9,28,13.7,55.3,20.6,83.2c-43,0-85.5,0-128.7,0c6.3-27.3,12.6-54.6,19-82.3
			C382.2,545.6,411.6,547.7,441.5,537.1z"/>
		<path d="M506.4,365.6c37.8-9.3,76.5-18.8,115.7-28.5c-1.5,24.4-3.1,48.4-4.6,72.8c-33.7-2.7-66.8-5.3-98.9-7.8
			C514.5,389.7,510.5,377.7,506.4,365.6z"/>
		<path d="M289.9,364.9c-3.6,12.6-7,24.6-10.6,37.1c-32,2.1-64.8,4.2-98.2,6.3c-1.9-23.4-3.7-46.6-5.6-70.4
			C214.2,347,252.3,356,289.9,364.9z"/>
		<path d="M362.7,424.7c0-19,15.9-35.7,33.9-35.5c21.3,0.2,37,15.1,37,35.4c0,19.8-15.7,35.5-35.6,35.4
			C378.3,460,362.7,444.4,362.7,424.7z"/>
	</g>
</g>
<g id="Livello_2" class="st0">
	<g class="st1">
		<path d="M417.1,645.9c-1-0.1-2.1-0.5-3.1-0.3c-2.6,0.6-1.3,3-1.8,4.6c-0.2,0.1-0.5,0.3-0.8,0.3c-9.9-0.4-19.9-0.5-29.8-1.3
			c-7.8-0.6-15.5-1.8-23.2-3c-5.5-0.9-10.9-2.1-16.3-3.6c-9.7-2.7-19.2-5.6-28.8-8.7c-4.6-1.5-9.1-3.5-13.5-5.4
			c-0.7-0.3-0.8-1.8-1.2-2.9c-0.3,0.3-0.8,0.7-1.5,1.4c-1.1-0.9-2.2-1.9-3.4-2.8c-0.2-0.1-0.5-0.3-0.6-0.3c-3.4,1.6-5.8-1-8.4-2.3
			c-32.7-16.4-60.9-38.6-84.8-66.3c-14.4-16.8-26.6-35.1-36.5-54.9c-6.5-13-12.2-26.4-16.4-40.3c-3.2-10.8-6-21.7-8.2-32.7
			c-4.2-21.5-5.3-43.3-4.1-65.2c0.7-12.9,2.4-25.7,5-38.4c2.7-13.1,6.2-25.9,10.8-38.5c9.9-27.5,23.9-52.7,42-75.7
			c16.1-20.6,34.9-38.5,56.1-53.7c15.2-10.9,31.4-20.4,48.8-27.6c10.4-4.3,20.8-8.4,31.5-11.7c10.2-3.1,20.7-5.2,31.1-7.3
			c19.2-3.9,38.7-4.7,58.2-3.9c8.9,0.3,17.7,1.2,26.5,2.5c10.1,1.5,20.1,3.4,30.1,5.7c7.8,1.8,15.4,4.3,23,6.9
			c11.4,4,22.5,8.8,33.3,14.4c11.6,6,22.8,12.7,33.5,20.3c16.5,11.6,31.4,24.9,45,39.8c13.9,15.3,25.9,32.1,36,50.1
			c7.6,13.5,14.1,27.6,19,42.3c3.7,11.2,7,22.6,9.6,34.2c5.2,23.4,6.5,47.2,5.5,71.1c-0.1,3.4-0.6,6.8-0.9,10.1
			c-0.1,1.6-0.4,2.9-2,3.7c-0.5,0.3-0.7,1-0.7,1.9c0.7-0.2,1.3-0.4,2-0.6c0.4,3.4-0.1,4.2-2.3,4.6c0.6,1.6,1.2,3.3,1.9,5.5
			c-2.5-0.5-4.6-1.9-4.9,1.3c2.8-0.2,2.8-0.2,1.3,5.3c0.6-0.1,1.1-0.1,2-0.2c-0.9,4.3-1.4,8.5-2.5,12.5c-2.8,10.5-5.5,21-8.9,31.3
			c-2.7,8.1-6.1,15.9-9.6,23.7c-5.9,13-12.9,25.4-20.9,37.3c-13.3,19.8-28.9,37.6-46.8,53.4c-16.8,14.8-35.1,27.3-54.9,37.6
			c-12.5,6.5-25.4,12.1-38.8,16.4c-9.9,3.2-20,6.1-30.2,8.1c-11.9,2.3-24.1,3.5-36.1,5.1c-3.6,0.5-7.2,0.5-10.8,0.7
			c-1.1,0.1-2.5,0.4-2.6-1.5c-0.1-1.7,0.9-2,2.3-2c0.2,0,0.4-0.1,0.6-0.2C417,646.5,417,646.2,417.1,645.9z M359.5,163.1
			c-39.4,9.1-73.9,27.3-103.2,55c-29.3,27.7-49.5,61.1-60.8,100c4.7,1.9,9.2,3.9,13.8,5.7c1.9,0.7,2.8,1.6,2.8,3.9
			c-0.1,12.9-0.1,25.8-0.1,38.6c0,2.5,0,5,0,7.4c-7.6,3.2-15.1,6.5-22.7,9.5c-1.5,0.6-2,1.3-1.9,2.8c0.3,4.2,0.4,8.4,0.8,12.6
			c1,12.2,3,24.2,6.4,35.9c3.1,10.5,6.6,21,10.9,31.1c7.2,17.2,17,33,28.4,47.8c2.8,3.7,2.9,3.7,7.3,1.8c0.9-0.4,1.8-0.7,2.7-1.1
			c5.8-2.4,11.7-4.8,17.5-7.2c-0.4,1.4-0.8,2.7-1.1,4c2.4-3.1,3.7-3.2,6.3-0.5c2.3,2.3,4.6,4.6,6.9,6.9c4.2,4.2,8.3,8.3,12.5,12.5
			c3.8,3.7,7.6,7.3,11.2,10.8c-3,7.2-5.7,14-8.5,20.6c-0.5,1.2-0.3,1.9,0.8,2.6c15.1,9.6,31.2,17.2,48.2,22.9
			c0.5,0.2,1.3,0.4,1.5,0.8c0.7,1.5,2,1.4,3.3,1.4c0.8,0,1.7-0.2,2.4,0c9.2,2,18.4,4.5,27.7,6.1c8.2,1.4,16.6,2.2,24.9,2.6
			c11.7,0.5,23.3,0.3,35-1.1c11.1-1.4,22-3.3,32.7-6.3c7.8-2.2,15.5-4.6,23-7.6c7.9-3.1,15.5-7,23.1-10.8c3.8-1.9,7.3-4.2,10.9-6.3
			c-0.2-2.5-2.9-4.3-0.8-6.7c-3.3-1.8-3.6-2.6-2.6-5.3c-0.9-1.5-1.6-2.5-2.2-3.6c-0.3-0.4-0.5-0.9-0.7-1.4c-1-2.1-1.9-4.2-3-6.2
			c-0.7-1.2-0.1-2,0.7-2.7c10.6-10.5,21.2-21.1,31.7-31.7c1.2-1.2,2.1-1.3,3.5-0.7c1.8,0.9,3.8,1.5,5.6,2.3c4.7,2.1,9.9,3.2,13,7.9
			c0.3,0.4,1.1,0.6,1.6,0.9c0.1-0.1,0.2-0.3,0.3-0.4c-0.3-0.7-0.7-1.3-1.3-2.6c2.6,1,4.6,1.5,6.5,2.5c1.6,0.8,2.4,0.3,3.1-0.9
			c3.1-4.8,7.8-8.4,10.3-13.7c1-2,2.4-3.8,3.7-5.6c0.3-0.4,1-1,1.3-0.9c1.6,0.3,1.7-0.4,1.3-1.6c-0.3-1.1-0.2-2,1.2-2.4
			c0.4-0.1,0.8-0.9,1-1.4c0.4-1.1,0.5-2.3,1-3.3c0.7-1.5,1.6-2.8,2.6-4.2c0.6-0.8,1.3-1.4,2.1-2.1c0.4-1.4,0.6-3,1.2-4.5
			c2.2-5,4.8-9.8,6.8-14.9c6.6-16,11.6-32.5,13.9-49.7c1.2-8.9,1.8-17.9,2.7-26.9c0.2-2.2-0.8-3-2.6-3.7c-6-2.4-11.9-4.9-17.8-7.3
			c-1.8-0.7-2.4-1.7-2.4-3.7c0.1-15,0.1-30,0-45c0-4.1,0-4,3.9-5.2c3.5-1.1,7-2.4,11-3.8c-3.5-9.2-6.6-18.3-10.3-27.1
			c-5.7-13.4-12.9-25.9-21.2-37.8c-2.5-3.6-4.7-7.5-7.4-10.9c-2.6-3.3-5.8-6.2-8.6-9.3c-15.9-18-34.4-33-55.2-44.9
			c-20.8-11.9-43-20.5-66.7-24.8c-8.9-1.6-17.8-3.2-26.8-3.7c-18.9-1.2-37.8-0.5-56.4,3.2c-2.4,0.5-4.9,1.6-7.3-1.2
			C359.4,161.8,359.4,162.4,359.5,163.1z"/>
		<path d="M406.1,297.6c17.7,0.6,34.8,0.9,51.9,1.8c14,0.8,28.1,2.2,42,3.8c12.7,1.5,25.3,3.4,37.9,5.5c8.7,1.4,17.3,3.2,25.8,5.3
			c9.6,2.4,19.1,5.5,28.7,8.2c1.5,0.4,1.9,1.2,1.8,2.6c-0.2,15.4-0.4,30.9-0.7,46.3c0,0.8-0.5,2-1.1,2.4
			c-8.1,5.1-14.3,12.1-19.7,19.7c-9.7,13.6-17.2,28.4-23.2,43.9c-3.7,9.6-7.2,19.4-10.4,29.2c-1.8,5.3-3.1,10.7-4.2,16.1
			c-0.9,4.5,0.2,8.8,2,12.9c0.9,2.1,0.9,3.5-0.9,5.2c-9.3,9-18.5,18.2-27.7,27.4c-0.8,0.8-1.4,1.1-2.7,0.6
			c-5.7-2.2-11.5-4.3-17.4-6.1c-10.8-3.2-21.8-6.2-32.7-9.1c-5-1.3-10.1-2.4-15.2-3.3c-8.1-1.4-16.3-3-24.5-3.8
			c-9.6-0.9-19.4-1.6-29.1-1.3c-8.3,0.2-16.6,1.7-24.8,3c-16.5,2.8-32.1,8.4-47.3,15.2c-3.3,1.5-6.4,3.2-9.6,4.9
			c-1.4,0.7-2.3,0.7-3.5-0.4c-6.3-6.2-12.6-12.2-18.9-18.4c-0.6-0.6-1.9-1.2-0.8-2.4c0.1-0.1-0.4-0.9-0.8-1.3
			c-1.7-1.7-3.3-3.4-5.1-5c-1.6-1.4-2.6-4-1.7-5.8c2.5-5,2.2-10.2,1.5-15.4c-1.8-12.5-6.7-23.9-12-35.1
			c-11.6-24.6-26.1-47.5-41.3-70c-1.2-1.8-1.8-3.5-1.8-5.6c0.1-14,0.1-28,0-42c0-1.8,0.3-2.9,2.3-3.5c10.3-3,20.5-6.3,30.8-9.1
			c7.5-2,15-3.7,22.6-5.1c9.2-1.7,18.4-3.1,27.6-4.4c10.4-1.4,20.9-2.6,31.4-3.7c6.7-0.7,13.5-1.3,20.3-1.6
			C372.7,298.7,389.7,298.2,406.1,297.6z M487.9,452.3c-0.8-0.7-1.8-1.3-2.5-2c-0.9-0.9-1.7-1.9-2.6-2.8c-0.2,0.1-0.3,0.3-0.5,0.4
			c1.6,1.9,3.2,3.8,5,6C487.6,453.1,487.8,452.7,487.9,452.3c0.7-0.4,2.1-0.8,2-1.1c-0.1-1.1-0.5-2.3-1.2-3.1
			c-0.5-0.7-1.7-0.8-2.5-1.2c1.2,1.3,2.3,2.4,3.1,3.6C489.5,450.7,488.4,451.7,487.9,452.3z M501.5,434.4c-1.6,1.5-1.5,2.6,0.2,4.2
			c1.1,1.1,2.3,1.1,3.4,0.1c1.1-1,1.4-2.2,0.3-3.3c-0.9-0.9-1.5-2.7-3.3-1.2C501.9,434.3,501.7,434.3,501.5,434.4z M479.6,452.7
			c-1.1,2,0.2,3.2,1.5,4.2c0.6,0.4,1.8,0.4,2.4,0.1c1.2-0.6,1.8-1.6,1-3c-1-2-2.3-2.6-4.3-1.9C480,452.3,479.8,452.5,479.6,452.7z
			 M407.3,341.8c-31.4,0-56.7,25-56.8,56.5c-0.1,31.8,25.5,56.7,56.4,56.9c31.5,0.2,57.1-25,57.2-56.6
			C464.1,367,438.7,341.9,407.3,341.8z M273.4,379.7c1.8-1.3,4.3-2,3.7-4.3c-0.5-1.9-2-3.9-3.6-4.9c-1.9-1.1-3.4,0.9-5,2.1
			C270.2,375.1,271.7,377.3,273.4,379.7z M262.8,387.1c3.9-2.7,4.1-3.1,2.5-5.5c-1.6-2.4-2.3-2.5-5.1-0.5c-0.7-0.5-1.4-0.9-2.1-1.4
			c-0.1,0.2-0.3,0.4-0.4,0.5C259.4,382.6,261.1,384.9,262.8,387.1z M265.1,378.8c0.2,0.2,0.4,0.3,0.6,0.5c0.8-0.7,1.1-2.6,2.8-1.2
			c-1,1.3-3.1,2.5-1.3,4.2c2.2,2,2.9-1.2,4.8-1.5c-1.1-1.5-1.8-2.8-2.9-3.8c-0.5-0.5-1.8-0.6-2.5-0.3
			C265.9,377,265.6,378.1,265.1,378.8z M260.8,388.6c-0.1-2.4-2.6-5.1-3.8-4.5c-1,0.4-2.2,1.6-2.5,2.6c-0.4,1.4,2.4,4.2,3.7,3.8
			C259.3,390.1,260.2,389,260.8,388.6z M288.8,367.2c0-1.4-1.9-3.6-3.3-3.6c-1.4,0-3,1.5-3.1,2.8c0,1.4,1.9,3.7,3.1,3.7
			C287,370.2,288.8,368.5,288.8,367.2z M252.1,388.1c-1.4,0-3.3,1.6-2.7,2.6c0.8,1.5,2.1,3,3.6,3.7c1.2,0.6,2.5-0.7,2.7-2.3
			C255.9,390.7,253.6,388.2,252.1,388.1z M279.9,367.9c-1.5,0-3,1.4-3,2.8c0,1.4,1.9,3.6,3.2,3.6c1.5,0.1,3.2-1.5,3.1-2.9
			C283.1,369.9,281.2,367.9,279.9,367.9z M492.2,438.9c1.3,1.6,2.4,3,3.6,4.4c0.7,0.7,1.1,2.3,2.6,1.2c1.3-1,2.8-2.1,1.8-4.1
			c-0.6-1.2-1.4-2.4-2.4-3.2c-0.7-0.5-2-0.6-2.8-0.3C494,437.2,493.2,438.1,492.2,438.9z M238.7,395.9c0.1,0.3,0.2,0.5,0.3,0.8
			c2.2-2,3.3-0.3,4.5,1.1c1,1.1,2,2.2,3,3.2c0.3-0.2,0.5-0.5,0.8-0.7c-1.7-1.9-3.3-3.8-4.9-5.6c0.5-0.9,0.8-1.5,1.2-2.1
			c-0.2-0.2-0.4-0.3-0.5-0.5C241.6,393.4,240.2,394.6,238.7,395.9z M569.1,381.3c-0.7,2.2-1,4.7-4.1,4.1c1,1.6,2.5,1.9,3.8,1.1
			C570.2,385.7,570.5,383.8,569.1,381.3z M512.4,432.6c-1.7-1.5-2.7-3-4-3.4c-1.3-0.4-2.9,1-2.5,2.4c0.4,1.4,1.7,2.7,3,3.4
			C509.3,435.3,510.8,433.8,512.4,432.6z M566.7,377.3c-1.3-1-2.7-1-3.6,0.1c-0.7,0.9-0.8,2.3-1.1,3.4c0,0.1,0.5,0.5,0.8,0.6
			c0.2,0,0.7-0.3,0.7-0.4C563.2,378.6,565,378.1,566.7,377.3z M477.8,461.9c0.6-0.9,1.5-1.7,1.7-2.7c0.3-1.3-2-3.8-3.1-3.4
			c-1,0.3-2.1,1.4-2.4,2.4C473.6,459.4,476.1,461.6,477.8,461.9z M289.8,359.9c-0.8,0.6-1.5,1.1-2.5,1.8c1.3,1.6,2.5,3.2,3.8,4.7
			c0.3-0.2,0.5-0.3,0.8-0.5C291.5,363.8,288.1,362.6,289.8,359.9z M467,459.4c-1.1,0.9-2.3,1.8-3.6,2.8c4.2-0.8,4.2,3.9,6.9,4.8
			C469.8,464.2,465.7,463.2,467,459.4z M249.8,397.9c0.2-0.2,0.5-0.4,0.7-0.6c-0.9-2-4-3.1-2.6-6.1c-0.7,0.6-1.5,1.2-2.4,1.9
			C247,394.8,248.4,396.3,249.8,397.9z M303.2,480.2c0.2,0.1,0.5,0.2,0.7,0.3c0.3-0.9,0.9-1.7,0.9-2.6c0-0.4-0.8-0.9-1.6-1.7
			C303.2,477.9,303.2,479.1,303.2,480.2z M494.8,446.7c0.2-0.2,0.4-0.4,0.6-0.5c-1.3-1.1-2.5-2.3-3.9-3c-0.4-0.2-1.4,0.9-2.2,1.5
			C491.2,443.3,491.2,443.3,494.8,446.7z M511.3,426.7c-0.2,0.2-0.5,0.4-0.7,0.6c1.1,1.4,2.2,2.8,3.3,4.2c0.2-0.1,0.4-0.3,0.6-0.4
			C513.3,429.5,512.3,428.1,511.3,426.7z M473.7,464.7c0.2-0.1,0.3-0.3,0.5-0.4c-1.1-1.4-2.2-2.9-3.3-4.3c-0.2,0.1-0.4,0.3-0.5,0.4
			C471.5,461.8,472.6,463.2,473.7,464.7z"/>
		<path class="st2" d="M407.3,341.8c31.4,0.1,56.8,25.2,56.7,56.9c-0.1,31.6-25.7,56.8-57.2,56.6c-30.9-0.2-56.5-25.1-56.4-56.9
			C350.6,366.8,375.9,341.8,407.3,341.8z M407.3,357.4c-22.3-0.5-41.2,18-41.3,40.9c-0.1,22.8,18.3,41.3,41,41.3
			c22.9,0,41.4-18.4,41.4-41.3C448.4,375.5,429.6,357.1,407.3,357.4z"/>
		<path class="st2" d="M273.4,379.7c-1.7-2.5-3.3-4.7-4.9-7.1c1.6-1.2,3.1-3.2,5-2.1c1.6,1,3.1,3,3.6,4.9
			C277.7,377.7,275.2,378.4,273.4,379.7z M269.9,372.2c1.4,2,2.2,3.3,3.1,4.6c0.9,1.2,2.6,0.9,2.5-0.4c-0.1-1.5-1.1-3.1-2.1-4.3
			C273,371.6,271.5,372.2,269.9,372.2z"/>
		<path class="st2" d="M262.8,387.1c-1.7-2.3-3.4-4.6-5.1-6.8c0.1-0.2,0.3-0.4,0.4-0.5c0.7,0.5,1.4,0.9,2.1,1.4
			c2.8-1.9,3.4-1.9,5.1,0.5C266.9,384,266.7,384.4,262.8,387.1z M262.6,380.3c-0.7,1.2-1.5,2-1.3,2.2c0.7,1,1.6,1.8,2.4,2.6
			c0.4-0.5,1.2-1.1,1.1-1.3C264.4,382.7,263.6,381.8,262.6,380.3z"/>
		<path class="st2" d="M265.1,378.8c0.5-0.7,0.8-1.8,1.4-2.1c0.7-0.3,2-0.2,2.5,0.3c1.1,1,1.8,2.3,2.9,3.8c-1.9,0.3-2.6,3.5-4.8,1.5
			c-1.8-1.7,0.3-2.9,1.3-4.2c-1.6-1.5-2,0.4-2.8,1.2C265.5,379.1,265.3,378.9,265.1,378.8z"/>
		<path class="st2" d="M260.8,388.6c-0.6,0.5-1.5,1.5-2.6,1.9c-1.2,0.4-4.1-2.4-3.7-3.8c0.3-1.1,1.4-2.2,2.5-2.6
			C258.3,383.5,260.7,386.2,260.8,388.6z M260.2,387.8c-1.3-1-2.2-1.9-3.3-2.5c-0.1,0-1.2,1.2-1.1,1.2c0.8,1,1.6,1.9,2.6,2.7
			C258.5,389.3,259.3,388.5,260.2,387.8z"/>
		<path class="st2" d="M288.8,367.2c0,1.4-1.8,3-3.2,3c-1.3-0.1-3.2-2.3-3.1-3.7c0-1.3,1.7-2.8,3.1-2.8
			C286.9,363.6,288.8,365.7,288.8,367.2z M288.1,367.3c-1.1-1-1.9-1.8-2.8-2.5c-0.2-0.1-1.5,1.1-1.4,1.2c0.6,1,1.4,1.9,2.2,2.7
			C286.2,368.9,287.2,368,288.1,367.3z"/>
		<path class="st2" d="M252.1,388.1c1.5,0,3.8,2.6,3.6,4.1c-0.2,1.6-1.5,2.8-2.7,2.3c-1.5-0.7-2.8-2.2-3.6-3.7
			C248.8,389.7,250.7,388.1,252.1,388.1z M252,388.5c-0.7,1.2-1.4,2.1-1.3,2.3c0.7,1,1.6,1.7,2.4,2.6c0.4-0.4,1.3-1.1,1.2-1.2
			C253.8,391,253,390,252,388.5z"/>
		<path class="st2" d="M279.9,367.9c1.3,0,3.2,2,3.3,3.5c0.1,1.4-1.6,3-3.1,2.9c-1.2,0-3.1-2.3-3.2-3.6
			C276.9,369.4,278.4,367.9,279.9,367.9z M282.5,371.5c-1.1-1-1.9-1.8-2.8-2.4c-0.1-0.1-1.4,1.2-1.3,1.3c0.6,1,1.4,1.8,2.3,2.6
			C280.7,373.1,281.6,372.3,282.5,371.5z"/>
		<path class="st2" d="M492.2,438.9c1.1-0.8,1.8-1.7,2.7-2c0.8-0.3,2.2-0.2,2.8,0.3c1,0.8,1.8,2,2.4,3.2c1,1.9-0.5,3.1-1.8,4.1
			c-1.5,1.1-1.9-0.4-2.6-1.2C494.6,442,493.5,440.5,492.2,438.9z M495.3,437.3c-0.4,0.4-1.7,1.4-1.6,1.5c1.2,1.7,2.6,3.3,3.9,5
			c0.6-0.6,1.6-1.2,1.9-1.9C500,440.4,497.4,437.4,495.3,437.3z"/>
		<path class="st2" d="M238.7,395.9c1.4-1.3,2.8-2.6,4.3-3.9c0.2,0.2,0.4,0.3,0.5,0.5c-0.3,0.6-0.7,1.3-1.2,2.1
			c1.6,1.8,3.3,3.7,4.9,5.6c-0.3,0.2-0.5,0.5-0.8,0.7c-1-1.1-2-2.1-3-3.2c-1.2-1.3-2.2-3-4.5-1.1
			C238.9,396.4,238.8,396.2,238.7,395.9z"/>
		<path d="M479.6,452.7c0.2-0.2,0.4-0.4,0.6-0.6c1.7-0.1,2.9,0.8,3.6,2.2c0.3,0.5,0.2,1.7-0.2,1.9c-0.5,0.3-1.8,0.4-2.1,0.1
			C480.7,455.2,480.2,453.9,479.6,452.7z"/>
		<path d="M501.5,434.4c0.2-0.1,0.4-0.1,0.6-0.2c1.9,0.3,3.7,2.1,3.1,3.3c-0.3,0.6-1.4,1.2-2.1,1.1
			C501.6,438.3,500.9,436.2,501.5,434.4z"/>
		<path class="st2" d="M569.1,381.3c1.3,2.4,1.1,4.3-0.3,5.2c-1.3,0.8-2.7,0.5-3.8-1.1C568.1,386,568.5,383.6,569.1,381.3z"/>
		<path class="st2" d="M512.4,432.6c-1.6,1.2-3.1,2.7-3.6,2.5c-1.3-0.7-2.6-2.1-3-3.4c-0.4-1.4,1.2-2.8,2.5-2.4
			C509.7,429.6,510.7,431.1,512.4,432.6z M511.5,432.9c-1.4-1.2-2.4-2.2-3.5-2.9c-0.2-0.1-1.1,0.9-1.6,1.4c0.9,1,1.7,2.1,2.7,2.9
			C509.3,434.4,510.3,433.6,511.5,432.9z"/>
		<path class="st2" d="M566.7,377.3c-1.7,0.8-3.5,1.3-3.3,3.7c0,0.1-0.5,0.5-0.7,0.4c-0.3-0.1-0.8-0.4-0.8-0.6
			c0.3-1.2,0.4-2.6,1.1-3.4C564,376.3,565.4,376.3,566.7,377.3z"/>
		<path class="st2" d="M501.5,434.4c-0.6,1.8,0.1,3.9,1.6,4.2c0.6,0.1,1.8-0.5,2.1-1.1c0.6-1.2-1.2-3-3.1-3.3
			c1.8-1.6,2.4,0.2,3.3,1.2c1.1,1.2,0.8,2.3-0.3,3.3c-1.1,1-2.3,1-3.4-0.1C500,437,500,435.9,501.5,434.4z"/>
		<path class="st2" d="M477.8,461.9c-1.7-0.3-4.2-2.5-3.8-3.7c0.3-1,1.4-2,2.4-2.4c1.2-0.4,3.4,2.1,3.1,3.4
			C479.3,460.2,478.4,461.1,477.8,461.9z M477.2,461.8c0.9-1.1,1.9-2,1.8-2.2c-0.7-1.1-1.6-2.2-2.6-3.1c-0.1-0.1-1.7,1.1-1.6,1.2
			C475.3,458.9,476.1,460.1,477.2,461.8z"/>
		<path class="st2" d="M289.8,359.9c-1.7,2.7,1.7,3.9,2,6c-0.3,0.2-0.5,0.3-0.8,0.5c-1.2-1.5-2.5-3-3.8-4.7
			C288.2,361,289,360.5,289.8,359.9z"/>
		<path class="st2" d="M467,459.4c-1.3,3.7,2.9,4.8,3.3,7.5c-2.7-0.9-2.7-5.5-6.9-4.8C464.7,461.2,465.8,460.3,467,459.4z"/>
		<path class="st2" d="M249.8,397.9c-1.4-1.6-2.8-3.1-4.3-4.7c0.9-0.7,1.6-1.3,2.4-1.9c-1.3,3,1.8,4.1,2.6,6.1
			C250.3,397.5,250.1,397.7,249.8,397.9z"/>
		<path class="st2" d="M479.6,452.7c0.6,1.2,1.1,2.5,1.9,3.6c0.3,0.4,1.6,0.3,2.1-0.1c0.3-0.2,0.4-1.4,0.2-1.9
			c-0.7-1.4-1.9-2.3-3.6-2.2c2-0.7,3.3-0.1,4.3,1.9c0.7,1.4,0.1,2.4-1,3c-0.7,0.3-1.9,0.3-2.4-0.1
			C479.8,455.9,478.4,454.7,479.6,452.7z"/>
		<path class="st2" d="M303.2,480.2c0-1.2,0-2.3,0-4.1c0.8,0.8,1.7,1.3,1.6,1.7c-0.1,0.9-0.6,1.8-0.9,2.6
			C303.6,480.4,303.4,480.3,303.2,480.2z"/>
		<path class="st2" d="M487.9,452.3c-0.1,0.4-0.2,0.8-0.5,1.6c-1.8-2.2-3.4-4.1-5-6c0.2-0.1,0.3-0.3,0.5-0.4
			c0.8,0.9,1.7,1.9,2.6,2.8C486.2,451,487.1,451.6,487.9,452.3C487.9,452.3,487.9,452.3,487.9,452.3z"/>
		<path class="st2" d="M494.8,446.7c-3.5-3.5-3.5-3.5-5.6-2.1c0.8-0.5,1.8-1.7,2.2-1.5c1.4,0.8,2.6,2,3.9,3
			C495.2,446.4,495,446.6,494.8,446.7z"/>
		<path class="st2" d="M487.9,452.3c0.5-0.6,1.6-1.6,1.5-1.8c-0.8-1.2-1.9-2.3-3.1-3.6c0.8,0.4,1.9,0.5,2.5,1.2c0.7,0.8,1,2,1.2,3.1
			C490,451.5,488.6,451.9,487.9,452.3C487.9,452.3,487.9,452.3,487.9,452.3z"/>
		<path class="st2" d="M511.3,426.7c1,1.4,2.1,2.9,3.1,4.3c-0.2,0.1-0.4,0.3-0.6,0.4c-1.1-1.4-2.2-2.8-3.3-4.2
			C510.8,427,511,426.8,511.3,426.7z"/>
		<path class="st2" d="M473.7,464.7c-1.1-1.4-2.3-2.9-3.4-4.3c0.2-0.1,0.4-0.3,0.5-0.4c1.1,1.4,2.2,2.9,3.3,4.3
			C474,464.4,473.9,464.5,473.7,464.7z"/>
		<path d="M407.3,357.4c22.3-0.4,41.1,18.1,41.2,41c0.1,22.9-18.4,41.3-41.4,41.3c-22.7,0-41.1-18.6-41-41.3
			C366.1,375.5,385,357,407.3,357.4z M414,387.2c1.6,1.5,3,1.4,4.2,0.2c1.1-1.1,1-2.6-0.1-4C417.7,385.6,416.8,387.2,414,387.2z
			 M415.8,379c-0.1-0.3-0.1-0.6-0.2-1c-1.1,0.1-2.6-0.1-3.3,0.5c-0.8,0.7-1,2.2-1.3,3.4c-0.1,0.2,0.3,0.7,0.6,0.8
			c0.3,0.1,0.9-0.3,0.9-0.4C412.2,379.9,413.9,379.4,415.8,379z"/>
		<path d="M269.9,372.2c1.6-0.1,3.2-0.6,3.6-0.1c1,1.2,2,2.8,2.1,4.3c0.1,1.3-1.7,1.5-2.5,0.4C272.1,375.6,271.2,374.2,269.9,372.2z
			"/>
		<path d="M262.6,380.3c1,1.5,1.7,2.4,2.2,3.5c0.1,0.2-0.7,0.9-1.1,1.3c-0.8-0.9-1.8-1.6-2.4-2.6
			C261.2,382.3,261.9,381.4,262.6,380.3z"/>
		<path d="M260.2,387.8c-0.9,0.7-1.7,1.5-1.8,1.4c-0.9-0.8-1.8-1.7-2.6-2.7c-0.1-0.1,1-1.3,1.1-1.2
			C257.9,385.9,258.9,386.8,260.2,387.8z"/>
		<path d="M288.1,367.3c-0.9,0.7-1.9,1.5-2,1.4c-0.9-0.8-1.6-1.7-2.2-2.7c-0.1-0.1,1.2-1.3,1.4-1.2
			C286.2,365.5,287,366.3,288.1,367.3z"/>
		<path d="M252,388.5c1.1,1.6,1.8,2.6,2.4,3.7c0.1,0.2-0.8,0.8-1.2,1.2c-0.8-0.8-1.8-1.6-2.4-2.6C250.5,390.5,251.3,389.7,252,388.5
			z"/>
		<path d="M282.5,371.5c-0.9,0.8-1.8,1.6-1.9,1.6c-0.9-0.8-1.7-1.7-2.3-2.6c-0.1-0.1,1.2-1.4,1.3-1.3
			C280.5,369.7,281.3,370.5,282.5,371.5z"/>
		<path d="M495.3,437.3c2.1,0.1,4.7,3.1,4.2,4.5c-0.3,0.8-1.2,1.3-1.9,1.9c-1.3-1.6-2.7-3.2-3.9-5
			C493.6,438.7,495,437.7,495.3,437.3z"/>
		<path d="M511.5,432.9c-1.2,0.7-2.2,1.5-2.4,1.4c-1-0.8-1.8-1.9-2.7-2.9c0.6-0.5,1.4-1.5,1.6-1.4
			C509.2,430.7,510.1,431.6,511.5,432.9z"/>
		<path d="M477.2,461.8c-1.1-1.7-1.9-2.8-2.5-4.1c-0.1-0.1,1.5-1.3,1.6-1.2c1,0.9,1.9,1.9,2.6,3.1
			C479,459.8,478.1,460.7,477.2,461.8z"/>
		<path class="st2" d="M414,387.2c2.7,0.1,3.6-1.6,4.1-3.8c1.1,1.5,1.3,2.9,0.1,4C417.1,388.6,415.6,388.7,414,387.2z"/>
		<path class="st2" d="M415.8,379c-1.9,0.4-3.6,1-3.4,3.3c0,0.1-0.6,0.4-0.9,0.4c-0.3-0.1-0.6-0.6-0.6-0.8c0.3-1.2,0.5-2.6,1.3-3.4
			c0.7-0.6,2.2-0.4,3.3-0.5C415.7,378.3,415.7,378.6,415.8,379z"/>
	</g>
</g>
</svg>
