<?xml version="1.0" encoding="utf-8"?>
<!-- Generator: Adobe Illustrator 22.0.0, SVG Export Plug-In . SVG Version: 6.00 Build 0)  -->
<svg version="1.1" id="Livello_1" xmlns="http://www.w3.org/2000/svg" xmlns:xlink="http://www.w3.org/1999/xlink" x="0px" y="0px"
	 viewBox="0 0 800 800" style="enable-background:new 0 0 800 800;" xml:space="preserve">
<g>
	<path d="M764.6,399.5c0,200.6-162.5,363.1-363.1,363.1C200.8,762.6,38.3,600,38.4,399.3c0.1-200.6,162.7-363,363.3-362.8
		C602.3,36.5,764.6,199,764.6,399.5z M378.6,138.5c-2.6,0-5.1,0-7.6,0c-7.1,0.1-10.2,3.1-10.2,10.3c0,10-0.1,20,0,30
		c0,2.3-0.6,3.1-3,3.3c-11.1,0.9-21.8,3.6-31.6,9.2c-18.6,10.6-31.3,26.3-39.9,45.7c-6,13.6-8,27.9-8,42.6
		c0,98.2,0.1,196.5,0.1,294.7c0,37.7-0.8,75.5,1.4,113.2c0.7,12.8,7.1,21.1,19.2,23.3c5,0.9,10.1,1.6,15.1,1.6
		c21.6,0.3,43.2,0.6,64.7,0.5c39.8-0.2,79.7-0.6,119.5-1c2.6,0,5.2-0.4,7.7-1c10.7-2.4,19.2-12,19.4-21.8c0.4-21.1,0.9-42.1,1-63.2
		c0.1-43.2,0-86.3-0.1-129.5c-0.1-73.2-0.2-146.5-0.4-219.7c0-4.4-0.2-8.8-0.7-13.2c-2-18.1-9.2-34.1-20-48.6
		c-12.1-16.2-27.6-27.4-47.7-31.3c-4.8-0.9-9.6-1.7-14.5-2.5c0-1.1,0-2,0-2.9c0-9.9,0-19.8,0-29.7c0-6.8-2.7-9.5-9.6-9.6
		c-2.2,0-4.5,0-6.8,0c0-13.7,0-27.2,0-40.9c1,0,1.9,0,2.8,0c9.1,0,18.2,0,27.2-0.1c3.6,0,5.2-1.6,5.3-5.2c0.1-3.6,0.1-7.2,0-10.7
		c-0.1-3.1-1.8-4.7-4.9-4.7c-2.7,0-5.3-0.1-8-0.1c-32.5,0-65,0-97.5,0c-1.4,0-2.8,0-4.2,0.1c-3.3,0.2-4.8,1.7-4.9,5.1
		c-0.1,3,0,6,0,9c0,5.3,1.3,6.6,6.7,6.6c8.7,0,17.3,0,26,0c1.1,0,2.3,0,3.4,0C378.6,111.6,378.6,124.9,378.6,138.5z"/>
	<path d="M388.2,413.2c-1.5,1.1-2.9,2.1-4.2,3.1c-6.9,5.3-10.7,12.4-11.5,21.1c-0.3,3.3-0.6,3.6-4,3.6c-21.7-0.2-43.5-0.3-65.2-0.5
		c-1.9,0-3-0.4-2.9-2.6c2-37.1,18.6-65.7,50.2-85.4c0.2-0.1,0.4-0.2,0.7-0.3c0.2-0.1,0.3-0.1,0.8-0.2
		C364,372.2,376,392.6,388.2,413.2z"/>
	<path d="M386.9,467.9c2.7,0.8,5.1,1.5,7.4,2.3c7.5,2.5,14.8,2.1,21.8-1.4c2.3-1.1,3.5-0.9,4.7,1.4c10.9,19.4,21.8,38.8,32.7,58.2
		c0.2,0.4,0.4,0.7,0.5,1.1c-28,17.8-71.3,19.2-102,0C363.7,509.1,375.3,488.6,386.9,467.9z"/>
	<path d="M418.2,413.3c12.1-20.5,24.2-41,36.4-61.6c9.6,5.9,18.2,12.7,25.5,21c14.5,16.5,22.9,35.7,25,57.6c0.2,2.1,0.4,4.1,0.7,6.2
		c0.5,3.8,0.2,4.2-3.7,4.2c-16.5,0.1-33,0.2-49.5,0.3c-5.2,0-10.5,0.1-15.7,0.1c-1.7,0-2.7-0.4-2.8-2.3c-0.6-10.9-6-18.9-14.9-24.9
		C418.8,413.8,418.7,413.6,418.2,413.3z"/>
	<path d="M403,461c-11.2,0-20.3-9.1-20.4-20.3c0-11.3,9.2-20.6,20.4-20.6c11.5,0,20.7,9.2,20.7,20.8C423.8,452.2,414.7,461,403,461z
		"/>
</g>
</svg>
