<?xml version="1.0" encoding="utf-8"?>
<!-- Generator: Adobe Illustrator 24.0.2, SVG Export Plug-In . SVG Version: 6.00 Build 0)  -->
<svg version="1.0" id="Livello_1" xmlns="http://www.w3.org/2000/svg" xmlns:xlink="http://www.w3.org/1999/xlink" x="0px" y="0px"
	 viewBox="0 0 800 800" style="enable-background:new 0 0 800 800;" xml:space="preserve">
<style type="text/css">
	.st0{fill:none;}
</style>
<rect x="-0.2" y="-0.2" class="st0" width="799.6" height="799.6"/>
<path d="M550.9,121.1c11.2,7.8,22.5,14.8,32.9,23c61.5,48.3,99.3,110.9,112.6,188c2.4,13.8,3.3,28,4.5,42c0.6,7.3,0,7.7-7.5,7.7
	c-36.8,0.2-73.5,0.3-110.3,0.6c-28.8,0.2-57.6,0.6-86.4,1c-4.3,0.1-5.8-1.2-6-5.7c-1.6-31.1-15.8-55.1-41.7-72.4
	c-1.3-0.9-2.7-1.7-4-2.6c-0.3-0.2-0.4-0.6-0.8-1.2C479.4,241.9,514.7,182.2,550.9,121.1z"/>
<path d="M250.3,121.8c35.6,60.3,70.8,119.9,106.4,180.1c-1.2,0.9-2.6,2-4,2.9c-26.4,17.3-41,41.5-42.6,73.1
	c-0.3,5.3-2.9,5.5-6.9,5.4c-58.6-0.5-117.2-0.9-175.8-1.3c-7,0-13.9-0.4-20.9,0c-5.7,0.3-7.1-2.1-6.9-7.4
	c1.7-41.5,10.4-81.3,28.1-119c25.9-55.3,64.9-98.9,117.1-130.7C246.5,123.8,248.3,122.9,250.3,121.8z"/>
<path d="M353.5,459.8c31.4,16.8,62.2,16.8,93.6,0.1c34.4,60.7,68.6,121.3,103.1,182.4c-46.7,26.8-96.3,40.1-149.3,40.2
	c-53.4,0.1-103.4-13.2-150.4-40.2C284.9,581.2,319,520.8,353.5,459.8z"/>
<path d="M400.9,321.8c33.3,0.1,59.6,26.9,59.5,60.7c-0.1,33.2-27.1,59.5-60.8,59.3c-33.1-0.1-59.4-27.2-59.2-61
	C340.5,348,367.4,321.7,400.9,321.8z"/>
</svg>
