<?xml version="1.0" encoding="utf-8"?>
<!-- Generator: Adobe Illustrator 22.0.0, SVG Export Plug-In . SVG Version: 6.00 Build 0)  -->
<svg version="1.1" id="Livello_1" xmlns="http://www.w3.org/2000/svg" xmlns:xlink="http://www.w3.org/1999/xlink" x="0px" y="0px"
	 viewBox="0 0 800 800" style="enable-background:new 0 0 800 800;" xml:space="preserve">
<g>
	<path d="M352.9,157.3c0-2.2,0-4.2,0-6.2c0-10.6,0-21.3,0-31.9c0-6.9,3.7-10.7,10.7-10.8c3.2-0.1,6.2,0,9.6,0c0-15.4,0-30.5,0-46
		c-0.8,0-1.7,0-2.6,0c-10.1,0-20.3,0-30.5,0c-1.2,0-2.3,0-3.5-0.2c-3-0.5-4.6-2.2-4.6-5.3c-0.1-4.3-0.1-8.6,0-12.9
		c0.1-2.9,1.7-4.6,4.6-5c1.1-0.2,2.3-0.1,3.5-0.1c39.7,0,79.4,0,119,0c0.7,0,1.5,0,2.2,0c4.5,0.2,6.2,1.8,6.2,6.2
		c0,3.5,0,6.9,0,10.4c0,4.8-1.8,6.6-6.5,6.7c-10.2,0.1-20.5,0-30.8,0c-1,0-2,0-3.2,0c0,15.5,0,30.8,0,46.5c1.5,0,3.2,0,4.8,0
		c1.7,0,3.5,0,5.2,0.1c5.8,0.4,8.7,3.5,8.8,9.2c0.1,11.9,0,23.8,0,35.7c0,1,0,2,0,3c6.1,1,11.9,1.8,17.8,3
		c22.8,4.8,40.2,17.8,53.8,36.3c11.8,16.1,19.6,33.8,21.9,53.8c0.5,4.7,0.7,9.4,0.8,14.1c0.2,84.8,0.3,169.6,0.4,254.4
		c0.1,57.3,0.1,114.8,0,172.1c0,13.6-0.9,27.3-0.9,40.9c0,10.2-5.1,17.2-13.1,22.4c-5.3,3.5-11.2,4.8-17.4,5
		c-67.1,2.1-134,0.7-201.1,0.9c-7.9,0-15.9-0.8-23.7-1.9c-14.8-2.2-22.1-11.2-23.1-26.1c-3.2-47.2-1.4-94.5-1.6-141.8
		c-0.4-107-0.2-214.1-0.2-321.1c0-18.4,2.8-36.3,10.9-53c10-20.5,24.4-37.3,44.6-48.4c11.2-6.2,23.4-8.9,36-9.8
		C351.4,157.5,352,157.4,352.9,157.3z M384,420.1c-13.8-23.3-27.6-46.6-41.4-70c-0.8,0.4-1.3,0.7-1.9,1
		c-22.1,13.4-38.1,32.1-48,55.9c-5.5,13-8,26.7-8.7,40.7c-0.2,2.8,0.4,3.5,2.9,3.5c25.3,0.2,50.6,0.3,75.8,0.5
		c2.3,0,3.2-0.7,3.4-3.1c0.7-10.5,5.3-19.1,13.8-25.5C381.2,422.2,382.5,421.2,384,420.1z M417.6,420.2c1.2,0.8,2.1,1.3,2.9,2
		c9,6.3,14.3,15,15.2,26c0.3,3.6,0.3,3.7,4,3.7c19-0.2,38.2-0.3,57.2-0.5c5.9,0,11.7-0.1,17.6,0c2.3,0,3.4-0.6,3.1-3.1
		c-0.4-3.4-0.6-6.7-1-10.1c-2-18.3-7.8-35-17.8-50.4c-10.1-15.7-23.6-27.9-39.7-37.8C445.3,373.2,431.5,396.6,417.6,420.2z
		 M459.1,552.2c-0.8-1.4-1.5-2.7-2.2-4c-12.2-21.6-24.4-43.2-36.6-64.8c-0.9-1.6-1.6-2-3.4-1.1c-6.5,3.3-13.6,4.9-20.9,3.5
		c-4.6-0.9-8.9-2.6-13.7-4c-13.1,23.2-26.4,46.7-39.7,70.3C376.2,572.5,422.9,573.7,459.1,552.2z M400.9,427.7
		c-12.3-0.2-23.8,10-23.4,24.1c0.4,12.4,10.6,22.6,23.2,22.6c13.2,0,23.7-10.3,23.6-23.2C424.2,438,413.9,427.7,400.9,427.7z"/>
</g>
</svg>
