<?xml version="1.0" encoding="utf-8"?>
<!-- Generator: Adobe Illustrator 24.2.3, SVG Export Plug-In . SVG Version: 6.00 Build 0)  -->
<svg version="1.1" id="Livello_1" xmlns="http://www.w3.org/2000/svg" xmlns:xlink="http://www.w3.org/1999/xlink" x="0px" y="0px"
	 viewBox="0 0 1080 1080" style="enable-background:new 0 0 1080 1080;" xml:space="preserve">
<style type="text/css">
	.st0{opacity:0.1;}
</style>
<path d="M342,654.1C241.9,579,141.7,503.8,41.6,428.7c0.2-0.5,0.2-0.7,0.3-0.8c0.1-0.1,0.2-0.2,0.3-0.3c0.3-0.1,0.7-0.1,1-0.1
	c124.7-0.1,249.3-0.1,374-0.2c0.2,0,0.3-0.1,1.1-0.3C458.6,307.5,499,187.7,539.4,67.8c0.3,0,0.7-0.1,1-0.1
	c8.4,23.7,16.1,47.6,24.2,71.3c8.2,23.9,16.2,48,24.2,72c8.1,24.1,16.3,48.3,24.4,72.4c8.1,24,16.2,47.9,24.3,71.9
	s16.1,47.9,24.3,72.1c125.6,0,250.9,0,376,0c0.2,0.5,0.4,0.6,0.4,0.8c0,0.1,0,0.3-0.1,0.4c-0.3,0.4-0.6,0.8-1,1.1
	C937.6,504.6,838,579.4,738.3,654.3c-0.1,0.1-0.1,0.3-0.4,1c36.1,119.3,72.3,239.1,108.5,358.8c-0.3,0.3-0.6,0.5-1,0.8
	c-101.7-71-203.3-142-305.3-213.3C438.3,872.8,336.6,943.8,235,1014.8c-0.5-0.2-0.6-0.2-0.7-0.3c-0.1-0.1-0.2-0.3-0.2-0.4
	c0-0.3,0-0.7,0.1-1c0.1-0.5,0.3-0.9,0.5-1.4c35.8-118.4,71.6-236.8,107.3-355.2c0.1-0.3,0.1-0.7,0.2-1
	C342.2,655.2,342.1,655.1,342,654.1z M730.5,855.4c0.2-0.2,0.5-0.3,0.7-0.5c-22.6-75-45.3-149.9-67.9-224.7
	c62.8-47.2,125.2-94.1,187.6-141c0.1-0.1,0.2-0.2,0.2-0.3c0-0.1-0.1-0.2-0.2-0.7c-78.2,0-156.4,0-234.9,0
	C590.5,413,565.3,338,540,263.1c-0.2,0-0.5,0-0.8,0.1c-25.3,75-50.5,149.8-75.9,225c-15.9,0-31.6,0-47.2,0c-15.7,0-31.3,0-47,0
	c-15.8,0-31.6,0-47.4,0c-15.7,0-31.3,0-47,0c-15.5,0-31.1-0.1-46.6,0.1c-0.1,0.2-0.1,0.5-0.2,0.8c62.8,47,125.5,94,188.1,141
	c-22.8,75.3-45.4,150.1-68,225c0.2,0.2,0.4,0.3,0.6,0.5C412.4,811,476,766.5,539.7,722C603.4,766.6,666.9,810.9,730.5,855.4z"/>
<path class="st0" d="M730.5,855.4c0.2-0.2,0.5-0.3,0.7-0.5c-22.6-75-45.3-149.9-67.9-224.7c62.8-47.2,125.2-94.1,187.6-141
	c0.1-0.1,0.2-0.2,0.2-0.3c0-0.1-0.1-0.2-0.2-0.7c-78.2,0-156.4,0-234.9,0C590.5,413,565.3,338,540,263.1c-0.2,0-0.5,0-0.8,0.1
	c-25.3,75-50.5,149.8-75.9,225c-15.9,0-31.6,0-47.2,0c-15.7,0-31.3,0-47,0c-15.8,0-31.6,0-47.4,0c-15.7,0-31.3,0-47,0
	c-15.5,0-31.1-0.1-46.6,0.1c-0.1,0.2-0.1,0.5-0.2,0.8c62.8,47,125.5,94,188.1,141c-22.8,75.3-45.4,150.1-68,225
	c0.2,0.2,0.4,0.3,0.6,0.5C412.4,811,476,766.5,539.7,722C603.4,766.6,666.9,810.9,730.5,855.4z"/>
</svg>
