<?xml version="1.0" encoding="utf-8"?>
<!-- Generator: Adobe Illustrator 24.2.3, SVG Export Plug-In . SVG Version: 6.00 Build 0)  -->
<svg version="1.1" id="Livello_1" xmlns="http://www.w3.org/2000/svg" xmlns:xlink="http://www.w3.org/1999/xlink" x="0px" y="0px"
	 viewBox="0 0 1920 570" style="enable-background:new 0 0 1920 570;" xml:space="preserve">
<style type="text/css">
	
		.st0{opacity:0.9;fill-rule:evenodd;clip-rule:evenodd;fill:#FFFFFF;stroke:#000000;stroke-linejoin:round;enable-background:new    ;}
	.st1{fill-rule:evenodd;clip-rule:evenodd;fill:#EFEFEF;stroke:#000000;stroke-width:0.3808;stroke-linejoin:round;}
	.st2{fill-rule:evenodd;clip-rule:evenodd;fill:#EAE406;stroke:#000000;stroke-width:0.3808;stroke-linejoin:round;}
	.st3{fill-rule:evenodd;clip-rule:evenodd;fill:#FF9F06;stroke:#000000;stroke-width:0.3808;stroke-linejoin:round;}
	.st4{font-family:'Arial-ItalicMT';}
	.st5{font-size:20.1088px;}
	.st6{font-size:26.8118px;}
	
		.st7{fill-rule:evenodd;clip-rule:evenodd;fill:#010101;stroke:#010101;stroke-width:0.7095;stroke-miterlimit:2.149;stroke-opacity:0.9952;}
	.st8{fill-rule:evenodd;clip-rule:evenodd;}
	.st9{fill-rule:evenodd;clip-rule:evenodd;fill:#010101;stroke:#010101;stroke-width:1.3205;stroke-opacity:0.9952;}
	.st10{fill:none;stroke:#000000;stroke-width:0.5974;stroke-miterlimit:1.3488;}
	.st11{fill:#333333;}
</style>
<g>
	<path id="rect1557" class="st0" d="M20.6,13.5h1876.8c3.1,0,5.6,2.5,5.6,5.6v529.5c0,3.1-2.5,5.6-5.6,5.6H20.6
		c-3.1,0-5.6-2.5-5.6-5.6V19.1C15,16,17.5,13.5,20.6,13.5z"/>
	<path id="rect606" class="st1" d="M44.9,37.8h67c3.1,0,5.6,2.5,5.6,5.6v67c0,3.1-2.5,5.6-5.6,5.6h-67c-3.1,0-5.6-2.5-5.6-5.6v-67
		C39.3,40.3,41.8,37.8,44.9,37.8z"/>
	<path id="rect607" class="st1" d="M205.5,37.8h67c3.1,0,5.6,2.5,5.6,5.6v67c0,3.1-2.5,5.6-5.6,5.6h-67c-3.1,0-5.6-2.5-5.6-5.6v-67
		C199.9,40.3,202.4,37.8,205.5,37.8z"/>
	<path id="rect608" class="st1" d="M286.5,37.8h67c3.1,0,5.6,2.5,5.6,5.6v67c0,3.1-2.5,5.6-5.6,5.6h-67c-3.1,0-5.6-2.5-5.6-5.6v-67
		C280.9,40.3,283.4,37.8,286.5,37.8z"/>
	<path id="rect609" class="st1" d="M367.5,37.8h67c3.1,0,5.6,2.5,5.6,5.6v67c0,3.1-2.5,5.6-5.6,5.6h-67c-3.1,0-5.6-2.5-5.6-5.6v-67
		C361.9,40.3,364.4,37.8,367.5,37.8z"/>
	<path id="rect610" class="st1" d="M448.5,37.8h67c3.1,0,5.6,2.5,5.6,5.6v67c0,3.1-2.5,5.6-5.6,5.6h-67c-3.1,0-5.6-2.5-5.6-5.6v-67
		C442.9,40.3,445.4,37.8,448.5,37.8z"/>
	<path id="rect611" class="st1" d="M568.5,37.8h67c3.1,0,5.6,2.5,5.6,5.6v67c0,3.1-2.5,5.6-5.6,5.6h-67c-3.1,0-5.6-2.5-5.6-5.6v-67
		C563,40.3,565.5,37.8,568.5,37.8z"/>
	<path id="rect612" class="st1" d="M649.5,37.8h67c3.1,0,5.6,2.5,5.6,5.6v67c0,3.1-2.5,5.6-5.6,5.6h-67c-3.1,0-5.6-2.5-5.6-5.6v-67
		C644,40.3,646.5,37.8,649.5,37.8z"/>
	<path id="rect613" class="st1" d="M729.8,37.8h67c3.1,0,5.6,2.5,5.6,5.6v67c0,3.1-2.5,5.6-5.6,5.6h-67c-3.1,0-5.6-2.5-5.6-5.6v-67
		C724.3,40.3,726.8,37.8,729.8,37.8z"/>
	<path id="rect614" class="st1" d="M810.1,37.8h67c3.1,0,5.6,2.5,5.6,5.6v67c0,3.1-2.5,5.6-5.6,5.6h-67c-3.1,0-5.6-2.5-5.6-5.6v-67
		C804.5,40.3,807,37.8,810.1,37.8z"/>
	<path id="rect617" class="st1" d="M928.8,37.8h67c3.1,0,5.6,2.5,5.6,5.6v67c0,3.1-2.5,5.6-5.6,5.6h-67c-3.1,0-5.6-2.5-5.6-5.6v-67
		C923.2,40.3,925.8,37.8,928.8,37.8z"/>
	<path id="rect618" class="st1" d="M1009.8,37.8h67c3.1,0,5.6,2.5,5.6,5.6v67c0,3.1-2.5,5.6-5.6,5.6h-67c-3.1,0-5.6-2.5-5.6-5.6v-67
		C1004.2,40.3,1006.7,37.8,1009.8,37.8z"/>
	<path id="rect619" class="st1" d="M1090.1,37.8h67c3.1,0,5.6,2.5,5.6,5.6v67c0,3.1-2.5,5.6-5.6,5.6h-67c-3.1,0-5.6-2.5-5.6-5.6v-67
		C1084.5,40.3,1087,37.8,1090.1,37.8z"/>
	<path id="rect620" class="st1" d="M1170.4,37.8h67c3.1,0,5.6,2.5,5.6,5.6v67c0,3.1-2.5,5.6-5.6,5.6h-67c-3.1,0-5.6-2.5-5.6-5.6v-67
		C1164.8,40.3,1167.3,37.8,1170.4,37.8z"/>
	<path id="rect621" class="st1" d="M1287.7,37.8h67c3.1,0,5.6,2.5,5.6,5.6v67c0,3.1-2.5,5.6-5.6,5.6h-67c-3.1,0-5.6-2.5-5.6-5.6v-67
		C1282.1,40.3,1284.6,37.8,1287.7,37.8z"/>
	<path id="rect622" class="st1" d="M1368.7,37.8h67c3.1,0,5.6,2.5,5.6,5.6v67c0,3.1-2.5,5.6-5.6,5.6h-67c-3.1,0-5.6-2.5-5.6-5.6v-67
		C1363.1,40.3,1365.6,37.8,1368.7,37.8z"/>
	<path id="rect623" class="st1" d="M1449.2,37.8h67c3.1,0,5.6,2.5,5.6,5.6v67c0,3.1-2.5,5.6-5.6,5.6h-67c-3.1,0-5.6-2.5-5.6-5.6v-67
		C1443.7,40.3,1446.2,37.8,1449.2,37.8z"/>
	<path id="rect629" class="st1" d="M1568.6,132.4h67c3.1,0,5.6,2.5,5.6,5.6v67c0,3.1-2.5,5.6-5.6,5.6h-67c-3.1,0-5.6-2.5-5.6-5.6
		v-67C1563,134.9,1565.5,132.4,1568.6,132.4z"/>
	<path id="rect630" class="st1" d="M1649.6,132.4h67c3.1,0,5.6,2.5,5.6,5.6v67c0,3.1-2.5,5.6-5.6,5.6h-67c-3.1,0-5.6-2.5-5.6-5.6
		v-67C1644,134.9,1646.5,132.4,1649.6,132.4z"/>
	<path id="rect631" class="st1" d="M1729.8,132.4h67c3.1,0,5.6,2.5,5.6,5.6v67c0,3.1-2.5,5.6-5.6,5.6h-67c-3.1,0-5.6-2.5-5.6-5.6
		v-67C1724.2,134.9,1726.7,132.4,1729.8,132.4z"/>
	<path id="rect632" class="st1" d="M1810.2,132.4h67c3.1,0,5.6,2.5,5.6,5.6v67c0,3.1-2.5,5.6-5.6,5.6h-67c-3.1,0-5.6-2.5-5.6-5.6
		v-67C1804.6,134.9,1807.1,132.4,1810.2,132.4z"/>
	<path id="rect633" class="st1" d="M1568.6,213.7h67c3.1,0,5.6,2.5,5.6,5.6v67c0,3.1-2.5,5.6-5.6,5.6h-67c-3.1,0-5.6-2.5-5.6-5.6
		v-67C1563,216.2,1565.5,213.7,1568.6,213.7z"/>
	<path id="rect634" class="st1" d="M1649.6,213.7h67c3.1,0,5.6,2.5,5.6,5.6v67c0,3.1-2.5,5.6-5.6,5.6h-67c-3.1,0-5.6-2.5-5.6-5.6
		v-67C1644,216.2,1646.5,213.7,1649.6,213.7z"/>
	<path id="rect635" class="st1" d="M1729.8,213.7h67c3.1,0,5.6,2.5,5.6,5.6v67c0,3.1-2.5,5.6-5.6,5.6h-67c-3.1,0-5.6-2.5-5.6-5.6
		v-67C1724.2,216.2,1726.7,213.7,1729.8,213.7z"/>
	<path id="rect637" class="st1" d="M1568.6,294h67c3.1,0,5.6,2.5,5.6,5.6v67c0,3.1-2.5,5.6-5.6,5.6h-67c-3.1,0-5.6-2.5-5.6-5.6v-67
		C1563,296.5,1565.5,294,1568.6,294z"/>
	<path id="rect638" class="st1" d="M1649.6,294h67c3.1,0,5.6,2.5,5.6,5.6v67c0,3.1-2.5,5.6-5.6,5.6h-67c-3.1,0-5.6-2.5-5.6-5.6v-67
		C1644,296.5,1646.5,294,1649.6,294z"/>
	<path id="rect639" class="st1" d="M1729.8,294h67c3.1,0,5.6,2.5,5.6,5.6v67c0,3.1-2.5,5.6-5.6,5.6h-67c-3.1,0-5.6-2.5-5.6-5.6v-67
		C1724.2,296.5,1726.7,294,1729.8,294z"/>
	<path id="rect641" class="st1" d="M1568.6,374.5h67c3.1,0,5.6,2.5,5.6,5.6v67c0,3.1-2.5,5.6-5.6,5.6h-67c-3.1,0-5.6-2.5-5.6-5.6
		v-67C1563,377,1565.5,374.5,1568.6,374.5z"/>
	<path id="rect642" class="st1" d="M1649.6,374.5h67c3.1,0,5.6,2.5,5.6,5.6v67c0,3.1-2.5,5.6-5.6,5.6h-67c-3.1,0-5.6-2.5-5.6-5.6
		v-67C1644,377,1646.5,374.5,1649.6,374.5z"/>
	<path id="rect643" class="st1" d="M1729.8,374.5h67c3.1,0,5.6,2.5,5.6,5.6v67c0,3.1-2.5,5.6-5.6,5.6h-67c-3.1,0-5.6-2.5-5.6-5.6
		v-67C1724.2,377,1726.7,374.5,1729.8,374.5z"/>
	<path id="rect647" class="st1" d="M1729.8,454.8h67c3.1,0,5.6,2.5,5.6,5.6v67c0,3.1-2.5,5.6-5.6,5.6h-67c-3.1,0-5.6-2.5-5.6-5.6
		v-67C1724.2,457.3,1726.7,454.8,1729.8,454.8z"/>
	<path id="rect655" class="st1" d="M1009.8,132.4h67c3.1,0,5.6,2.5,5.6,5.6v67c0,3.1-2.5,5.6-5.6,5.6h-67c-3.1,0-5.6-2.5-5.6-5.6
		v-67C1004.2,134.9,1006.7,132.4,1009.8,132.4z"/>
	<path id="rect658" class="st1" d="M1287.7,132.4h67c3.1,0,5.6,2.5,5.6,5.6v67c0,3.1-2.5,5.6-5.6,5.6h-67c-3.1,0-5.6-2.5-5.6-5.6
		v-67C1282.1,134.9,1284.6,132.4,1287.7,132.4z"/>
	<path id="rect659" class="st1" d="M1368.7,132.4h67c3.1,0,5.6,2.5,5.6,5.6v67c0,3.1-2.5,5.6-5.6,5.6h-67c-3.1,0-5.6-2.5-5.6-5.6
		v-67C1363.1,134.9,1365.6,132.4,1368.7,132.4z"/>
	<path id="rect660" class="st1" d="M1449.2,132.4h67c3.1,0,5.6,2.5,5.6,5.6v67c0,3.1-2.5,5.6-5.6,5.6h-67c-3.1,0-5.6-2.5-5.6-5.6
		v-67C1443.7,134.9,1446.2,132.4,1449.2,132.4z"/>
	<path id="rect649" class="st1" d="M44.9,132.4h67c3.1,0,5.6,2.5,5.6,5.6v67c0,3.1-2.5,5.6-5.6,5.6h-67c-3.1,0-5.6-2.5-5.6-5.6v-67
		C39.3,134.9,41.8,132.4,44.9,132.4z"/>
	<path id="rect650" class="st1" d="M205.5,132.4h67c3.1,0,5.6,2.5,5.6,5.6v67c0,3.1-2.5,5.6-5.6,5.6h-67c-3.1,0-5.6-2.5-5.6-5.6v-67
		C199.9,134.9,202.4,132.4,205.5,132.4z"/>
	<path id="rect651" class="st1" d="M286.5,132.4h67c3.1,0,5.6,2.5,5.6,5.6v67c0,3.1-2.5,5.6-5.6,5.6h-67c-3.1,0-5.6-2.5-5.6-5.6v-67
		C280.9,134.9,283.4,132.4,286.5,132.4z"/>
	<path id="rect652" class="st1" d="M367.5,132.4h67c3.1,0,5.6,2.5,5.6,5.6v67c0,3.1-2.5,5.6-5.6,5.6h-67c-3.1,0-5.6-2.5-5.6-5.6v-67
		C361.9,134.9,364.4,132.4,367.5,132.4z"/>
	<path id="rect653" class="st1" d="M447.8,132.4h67c3.1,0,5.6,2.5,5.6,5.6v67c0,3.1-2.5,5.6-5.6,5.6h-67c-3.1,0-5.6-2.5-5.6-5.6v-67
		C442.2,134.9,444.7,132.4,447.8,132.4z"/>
	<path id="rect654" class="st1" d="M929.5,132.4h67c3.1,0,5.6,2.5,5.6,5.6v67c0,3.1-2.5,5.6-5.6,5.6h-67c-3.1,0-5.6-2.5-5.6-5.6v-67
		C924,134.9,926.5,132.4,929.5,132.4z"/>
	<path id="rect661" class="st1" d="M125.7,132.4h67c3.1,0,5.6,2.5,5.6,5.6v67c0,3.1-2.5,5.6-5.6,5.6h-67c-3.1,0-5.6-2.5-5.6-5.6v-67
		C120.1,134.9,122.6,132.4,125.7,132.4z"/>
	<path id="rect662" class="st1" d="M528,132.4h67c3.1,0,5.6,2.5,5.6,5.6v67c0,3.1-2.5,5.6-5.6,5.6h-67c-3.1,0-5.6-2.5-5.6-5.6v-67
		C522.4,134.9,524.9,132.4,528,132.4z"/>
	<path id="rect663" class="st1" d="M608.3,132.4h67c3.1,0,5.6,2.5,5.6,5.6v67c0,3.1-2.5,5.6-5.6,5.6h-67c-3.1,0-5.6-2.5-5.6-5.6v-67
		C602.7,134.9,605.2,132.4,608.3,132.4z"/>
	<path id="rect664" class="st1" d="M689.3,132.4h67c3.1,0,5.6,2.5,5.6,5.6v67c0,3.1-2.5,5.6-5.6,5.6h-67c-3.1,0-5.6-2.5-5.6-5.6v-67
		C683.7,134.9,686.2,132.4,689.3,132.4z"/>
	<path id="rect665" class="st1" d="M770.3,132.4h67c3.1,0,5.6,2.5,5.6,5.6v67c0,3.1-2.5,5.6-5.6,5.6h-67c-3.1,0-5.6-2.5-5.6-5.6v-67
		C764.7,134.9,767.2,132.4,770.3,132.4z"/>
	<path id="rect666" class="st1" d="M849.8,132.4h67c3.1,0,5.6,2.5,5.6,5.6v67c0,3.1-2.5,5.6-5.6,5.6h-67c-3.1,0-5.6-2.5-5.6-5.6v-67
		C844.2,134.9,846.7,132.4,849.8,132.4z"/>
	<path id="rect680" class="st1" d="M166.4,213.7h67c3.1,0,5.6,2.5,5.6,5.6v67c0,3.1-2.5,5.6-5.6,5.6h-67c-3.1,0-5.6-2.5-5.6-5.6v-67
		C160.8,216.2,163.3,213.7,166.4,213.7z"/>
	<path id="rect681" class="st1" d="M327.4,213.7h67c3.1,0,5.6,2.5,5.6,5.6v67c0,3.1-2.5,5.6-5.6,5.6h-67c-3.1,0-5.6-2.5-5.6-5.6v-67
		C321.8,216.2,324.3,213.7,327.4,213.7z"/>
	<path id="rect682" class="st1" d="M407.6,213.7h67c3.1,0,5.6,2.5,5.6,5.6v67c0,3.1-2.5,5.6-5.6,5.6h-67c-3.1,0-5.6-2.5-5.6-5.6v-67
		C402.1,216.2,404.5,213.7,407.6,213.7z"/>
	<path id="rect683" class="st1" d="M488.6,213.7h67c3.1,0,5.6,2.5,5.6,5.6v67c0,3.1-2.5,5.6-5.6,5.6h-67c-3.1,0-5.6-2.5-5.6-5.6v-67
		C483,216.2,485.6,213.7,488.6,213.7z"/>
	<path id="rect684" class="st1" d="M568.9,213.7h67c3.1,0,5.6,2.5,5.6,5.6v67c0,3.1-2.5,5.6-5.6,5.6h-67c-3.1,0-5.6-2.5-5.6-5.6v-67
		C563.3,216.2,565.8,213.7,568.9,213.7z"/>
	<path id="rect685" class="st1" d="M1050.7,213.7h67c3.1,0,5.6,2.5,5.6,5.6v67c0,3.1-2.5,5.6-5.6,5.6h-67c-3.1,0-5.6-2.5-5.6-5.6
		v-67C1045.1,216.2,1047.6,213.7,1050.7,213.7z"/>
	<path id="rect686" class="st2" d="M246.8,213.7h67c3.1,0,5.6,2.5,5.6,5.6v67c0,3.1-2.5,5.6-5.6,5.6h-67c-3.1,0-5.6-2.5-5.6-5.6v-67
		C241.2,216.2,243.8,213.7,246.8,213.7z"/>
	<path id="rect687" class="st1" d="M649.2,213.7h67c3.1,0,5.6,2.5,5.6,5.6v67c0,3.1-2.5,5.6-5.6,5.6h-67c-3.1,0-5.6-2.5-5.6-5.6v-67
		C643.6,216.2,646.1,213.7,649.2,213.7z"/>
	<path id="rect688" class="st1" d="M729.5,213.7h67c3.1,0,5.6,2.5,5.6,5.6v67c0,3.1-2.5,5.6-5.6,5.6h-67c-3.1,0-5.6-2.5-5.6-5.6v-67
		C723.9,216.2,726.4,213.7,729.5,213.7z"/>
	<path id="rect689" class="st1" d="M810.5,213.7h67c3.1,0,5.6,2.5,5.6,5.6v67c0,3.1-2.5,5.6-5.6,5.6h-67c-3.1,0-5.6-2.5-5.6-5.6v-67
		C804.9,216.2,807.4,213.7,810.5,213.7z"/>
	<path id="rect690" class="st1" d="M891.1,213.7h67c3.1,0,5.6,2.5,5.6,5.6v67c0,3.1-2.5,5.6-5.6,5.6h-67c-3.1,0-5.6-2.5-5.6-5.6v-67
		C885.5,216.2,888,213.7,891.1,213.7z"/>
	<path id="rect691" class="st1" d="M970.9,213.7h67c3.1,0,5.6,2.5,5.6,5.6v67c0,3.1-2.5,5.6-5.6,5.6h-67c-3.1,0-5.6-2.5-5.6-5.6v-67
		C965.3,216.2,967.8,213.7,970.9,213.7z"/>
	<path id="rect692" class="st2" d="M189.5,294.5h67c3.1,0,5.6,2.5,5.6,5.6v67c0,3.1-2.5,5.6-5.6,5.6h-67c-3.1,0-5.6-2.5-5.6-5.6v-67
		C183.9,297,186.4,294.5,189.5,294.5z"/>
	<path id="rect693" class="st2" d="M350.8,294.5h67c3.1,0,5.6,2.5,5.6,5.6v67c0,3.1-2.5,5.6-5.6,5.6h-67c-3.1,0-5.6-2.5-5.6-5.6v-67
		C345.2,297,347.7,294.5,350.8,294.5z"/>
	<path id="rect694" class="st1" d="M431.1,294.5h67c3.1,0,5.6,2.5,5.6,5.6v67c0,3.1-2.5,5.6-5.6,5.6h-67c-3.1,0-5.6-2.5-5.6-5.6v-67
		C425.5,297,428,294.5,431.1,294.5z"/>
	<path id="rect695" class="st1" d="M512.1,294.5h67c3.1,0,5.6,2.5,5.6,5.6v67c0,3.1-2.5,5.6-5.6,5.6h-67c-3.1,0-5.6-2.5-5.6-5.6v-67
		C506.5,297,509,294.5,512.1,294.5z"/>
	<path id="rect696" class="st1" d="M592.4,294.5h67c3.1,0,5.6,2.5,5.6,5.6v67c0,3.1-2.5,5.6-5.6,5.6h-67c-3.1,0-5.6-2.5-5.6-5.6v-67
		C586.8,297,589.3,294.5,592.4,294.5z"/>
	<path id="rect697" class="st1" d="M1080.6,294.7h149.9c6.9,0,12.5,5.6,12.5,12.5V360c0,6.9-5.6,12.5-12.5,12.5h-149.9
		c-6.9,0-12.5-5.6-12.5-12.5v-52.8C1068.1,300.3,1073.7,294.7,1080.6,294.7z"/>
	<path id="rect698" class="st2" d="M270.3,294.5h67c3.1,0,5.6,2.5,5.6,5.6v67c0,3.1-2.5,5.6-5.6,5.6h-67c-3.1,0-5.6-2.5-5.6-5.6v-67
		C264.7,297,267.2,294.5,270.3,294.5z"/>
	<path id="rect699" class="st1" d="M672.6,294.5h67c3.1,0,5.6,2.5,5.6,5.6v67c0,3.1-2.5,5.6-5.6,5.6h-67c-3.1,0-5.6-2.5-5.6-5.6v-67
		C667,297,669.5,294.5,672.6,294.5z"/>
	<path id="rect700" class="st1" d="M752.6,294.5h67c3.1,0,5.6,2.5,5.6,5.6v67c0,3.1-2.5,5.6-5.6,5.6h-67c-3.1,0-5.6-2.5-5.6-5.6v-67
		C747,297,749.5,294.5,752.6,294.5z"/>
	<path id="rect701" class="st1" d="M832.9,294.5h67c3.1,0,5.6,2.5,5.6,5.6v67c0,3.1-2.5,5.6-5.6,5.6h-67c-3.1,0-5.6-2.5-5.6-5.6v-67
		C827.3,297,829.8,294.5,832.9,294.5z"/>
	<path id="rect702" class="st1" d="M913.2,294.5h67c3.1,0,5.6,2.5,5.6,5.6v67c0,3.1-2.5,5.6-5.6,5.6h-67c-3.1,0-5.6-2.5-5.6-5.6v-67
		C907.6,297,910.1,294.5,913.2,294.5z"/>
	<path id="rect703" class="st1" d="M993.3,294.5h67c3.1,0,5.6,2.5,5.6,5.6v67c0,3.1-2.5,5.6-5.6,5.6h-67c-3.1,0-5.6-2.5-5.6-5.6v-67
		C987.8,297,990.3,294.5,993.3,294.5z"/>
	<path id="rect705" class="st1" d="M311,375.3h67c3.1,0,5.6,2.5,5.6,5.6v67c0,3.1-2.5,5.6-5.6,5.6h-67c-3.1,0-5.6-2.5-5.6-5.6v-67
		C305.4,377.8,307.9,375.3,311,375.3z"/>
	<path id="rect706" class="st1" d="M392,375.3h67c3.1,0,5.6,2.5,5.6,5.6v67c0,3.1-2.5,5.6-5.6,5.6h-67c-3.1,0-5.6-2.5-5.6-5.6v-67
		C386.4,377.8,388.9,375.3,392,375.3z"/>
	<path id="rect707" class="st1" d="M473,375.3h67c3.1,0,5.6,2.5,5.6,5.6v67c0,3.1-2.5,5.6-5.6,5.6h-67c-3.1,0-5.6-2.5-5.6-5.6v-67
		C467.4,377.8,469.9,375.3,473,375.3z"/>
	<path id="rect708" class="st1" d="M553.3,375.3h67c3.1,0,5.6,2.5,5.6,5.6v67c0,3.1-2.5,5.6-5.6,5.6h-67c-3.1,0-5.6-2.5-5.6-5.6v-67
		C547.7,377.8,550.2,375.3,553.3,375.3z"/>
	<path id="rect710" class="st1" d="M231.2,375.3h67c3.1,0,5.6,2.5,5.6,5.6v67c0,3.1-2.5,5.6-5.6,5.6h-67c-3.1,0-5.6-2.5-5.6-5.6v-67
		C225.6,377.8,228.1,375.3,231.2,375.3z"/>
	<path id="rect711" class="st1" d="M633.5,375.3h67c3.1,0,5.6,2.5,5.6,5.6v67c0,3.1-2.5,5.6-5.6,5.6h-67c-3.1,0-5.6-2.5-5.6-5.6v-67
		C628,377.8,630.5,375.3,633.5,375.3z"/>
	<path id="rect712" class="st1" d="M713.8,375.3h67c3.1,0,5.6,2.5,5.6,5.6v67c0,3.1-2.5,5.6-5.6,5.6h-67c-3.1,0-5.6-2.5-5.6-5.6v-67
		C708.2,377.8,710.8,375.3,713.8,375.3z"/>
	<path id="rect713" class="st1" d="M794.1,375.3h67c3.1,0,5.6,2.5,5.6,5.6v67c0,3.1-2.5,5.6-5.6,5.6h-67c-3.1,0-5.6-2.5-5.6-5.6v-67
		C788.5,377.8,791,375.3,794.1,375.3z"/>
	<path id="rect714" class="st1" d="M874.8,375.3h67c3.1,0,5.6,2.5,5.6,5.6v67c0,3.1-2.5,5.6-5.6,5.6h-67c-3.1,0-5.6-2.5-5.6-5.6v-67
		C869.2,377.8,871.7,375.3,874.8,375.3z"/>
	<path id="rect715" class="st1" d="M955,375.3h67c3.1,0,5.6,2.5,5.6,5.6v67c0,3.1-2.5,5.6-5.6,5.6h-67c-3.1,0-5.6-2.5-5.6-5.6v-67
		C949.4,377.8,951.9,375.3,955,375.3z"/>
	<path id="rect716" class="st1" d="M1287.7,213.7h67c3.1,0,5.6,2.5,5.6,5.6v67c0,3.1-2.5,5.6-5.6,5.6h-67c-3.1,0-5.6-2.5-5.6-5.6
		v-67C1282.1,216.2,1284.6,213.7,1287.7,213.7z"/>
	<path id="rect717" class="st1" d="M1368.7,213.7h67c3.1,0,5.6,2.5,5.6,5.6v67c0,3.1-2.5,5.6-5.6,5.6h-67c-3.1,0-5.6-2.5-5.6-5.6
		v-67C1363.1,216.2,1365.6,213.7,1368.7,213.7z"/>
	<path id="rect718" class="st1" d="M1449.2,213.7h67c3.1,0,5.6,2.5,5.6,5.6v67c0,3.1-2.5,5.6-5.6,5.6h-67c-3.1,0-5.6-2.5-5.6-5.6
		v-67C1443.7,216.2,1446.2,213.7,1449.2,213.7z"/>
	<path id="rect719" class="st2" d="M1287.7,456.2h67c3.1,0,5.6,2.5,5.6,5.6v67c0,3.1-2.5,5.6-5.6,5.6h-67c-3.1,0-5.6-2.5-5.6-5.6
		v-67C1282.1,458.7,1284.6,456.2,1287.7,456.2z"/>
	<path id="rect720" class="st2" d="M1368.7,456.2h67c3.1,0,5.6,2.5,5.6,5.6v67c0,3.1-2.5,5.6-5.6,5.6h-67c-3.1,0-5.6-2.5-5.6-5.6
		v-67C1363.1,458.7,1365.6,456.2,1368.7,456.2z"/>
	<path id="rect721" class="st2" d="M1449.2,456.2h67c3.1,0,5.6,2.5,5.6,5.6v67c0,3.1-2.5,5.6-5.6,5.6h-67c-3.1,0-5.6-2.5-5.6-5.6
		v-67C1443.7,458.7,1446.2,456.2,1449.2,456.2z"/>
	<path id="rect722" class="st2" d="M1368.7,375.3h67c3.1,0,5.6,2.5,5.6,5.6v67c0,3.1-2.5,5.6-5.6,5.6h-67c-3.1,0-5.6-2.5-5.6-5.6
		v-67C1363.1,377.8,1365.6,375.3,1368.7,375.3z"/>
	<path id="rect723" class="st1" d="M1034.9,375.3h203.8c3.1,0,5.6,2.5,5.6,5.6v67c0,3.1-2.5,5.6-5.6,5.6h-203.8
		c-3.1,0-5.6-2.5-5.6-5.6v-67C1029.3,377.8,1031.8,375.3,1034.9,375.3z"/>
	<path id="rect724" class="st3" d="M1130.1,456.2h108.7c3.1,0,5.6,2.5,5.6,5.6v67c0,3.1-2.5,5.6-5.6,5.6h-108.7
		c-3.1,0-5.6-2.5-5.6-5.6v-67C1124.5,458.7,1127,456.2,1130.1,456.2z"/>
	<path id="rect725" class="st1" d="M930.7,456.2h108.7c3.1,0,5.6,2.5,5.6,5.6v67c0,3.1-2.5,5.6-5.6,5.6H930.7
		c-3.1,0-5.6-2.5-5.6-5.6v-67C925.1,458.7,927.6,456.2,930.7,456.2z"/>
	<path id="rect726" class="st1" d="M245.4,456.2h108.7c3.1,0,5.6,2.5,5.6,5.6v67c0,3.1-2.5,5.6-5.6,5.6H245.4
		c-3.1,0-5.6-2.5-5.6-5.6v-67C239.8,458.7,242.3,456.2,245.4,456.2z"/>
	<path id="rect727" class="st3" d="M367.2,456.2h550.4c3.1,0,5.6,2.5,5.6,5.6v67c0,3.1-2.5,5.6-5.6,5.6H367.2
		c-3.1,0-5.6-2.5-5.6-5.6v-67C361.7,458.7,364.2,456.2,367.2,456.2z"/>
	<path id="rect729" class="st3" d="M44.7,456.2h108.7c3.1,0,5.6,2.5,5.6,5.6v67c0,3.1-2.5,5.6-5.6,5.6H44.7c-3.1,0-5.6-2.5-5.6-5.6
		v-67C39.1,458.7,41.6,456.2,44.7,456.2z"/>
	<path id="rect730" class="st1" d="M44.7,213.7h108.7c3.1,0,5.6,2.5,5.6,5.6v67c0,3.1-2.5,5.6-5.6,5.6H44.7c-3.1,0-5.6-2.5-5.6-5.6
		v-67C39.1,216.2,41.6,213.7,44.7,213.7z"/>
	<path id="rect731_1_" class="st1" d="M44.7,453.5c-3.1,0-5.6-2.5-5.6-5.6v-67c0-3.1,2.5-5.6,5.6-5.6h172.7c3.1,0,5.6,2.5,5.6,5.6
		v67c0,3.1-2.5,5.6-5.6,5.6H44.7z"/>
	<path id="rect732" class="st1" d="M44.7,294.5h130.9c3.1,0,5.6,2.5,5.6,5.6v67c0,3.1-2.5,5.6-5.6,5.6H44.7c-3.1,0-5.6-2.5-5.6-5.6
		v-67C39.1,297,41.6,294.5,44.7,294.5z"/>
	<text transform="matrix(1 0 0 1 49.397 71.5039)" class="st4 st5">Esc</text>
	<text transform="matrix(1 0 0 1 49.3945 480.0723)" class="st4 st5">Crtl</text>
	<text transform="matrix(1 0 0 1 372.1963 480.0723)" class="st4 st5">Space</text>
	<text transform="matrix(1 0 0 1 250.0464 480.0742)" class="st4 st5">Alt</text>
	<text transform="matrix(1 0 0 1 935.0557 482.9082)" class="st4 st5">Alt</text>
	<text transform="matrix(1 0 0 1 1134.7383 480.0723)" class="st4 st5">Ctrl</text>
	<text transform="matrix(1 0 0 1 130.7441 204.9546)" class="st4 st6">1</text>
	<text transform="matrix(1 0 0 1 130.7441 160.0547)" class="st4 st6">!</text>
	<text transform="matrix(1 0 0 1 210.5542 204.9546)" class="st4 st6">2</text>
	<text transform="matrix(1 0 0 1 210.5542 160.0547)" class="st4 st6">@</text>
	<text transform="matrix(1 0 0 1 289.8779 204.9546)" class="st4 st6">3</text>
	<text transform="matrix(1 0 0 1 289.8779 160.0547)" class="st4 st6">#</text>
	<text transform="matrix(1 0 0 1 372.1958 204.9546)" class="st4 st6">4</text>
	<text transform="matrix(1 0 0 1 372.1958 160.0547)" class="st4 st6">$</text>
	<text transform="matrix(1 0 0 1 450.8218 204.9546)" class="st4 st6">5</text>
	<text transform="matrix(1 0 0 1 450.8218 160.0547)" class="st4 st6">%</text>
	<text transform="matrix(1 0 0 1 530.0454 204.9546)" class="st4 st6">6</text>
	<text transform="matrix(1 0 0 1 530.0454 160.0547)" class="st4 st6">^</text>
	<text transform="matrix(1 0 0 1 611.6646 204.9546)" class="st4 st6">7</text>
	<text transform="matrix(1 0 0 1 611.6646 160.0547)" class="st4 st6">&amp;</text>
	<text transform="matrix(1 0 0 1 695.478 204.9546)" class="st4 st6">8</text>
	<text transform="matrix(1 0 0 1 695.478 160.0547)" class="st4 st6">*</text>
	<text transform="matrix(1 0 0 1 774.8018 204.9546)" class="st4 st6">9</text>
	<text transform="matrix(1 0 0 1 774.8018 160.0547)" class="st4 st6">(</text>
	<text transform="matrix(1 0 0 1 854.126 204.9546)" class="st4 st6">0</text>
	<text transform="matrix(1 0 0 1 854.126 160.0547)" class="st4 st6">)</text>
	<text transform="matrix(1 0 0 1 51.4204 204.9546)" class="st4 st6">`</text>
	<text transform="matrix(1 0 0 1 51.4204 160.0547)" class="st4 st6">~</text>
	<text transform="matrix(1 0 0 1 170.0068 242.479)" class="st4 st6">Q</text>
	<text transform="matrix(1 0 0 1 249.4673 242.479)" class="st4 st6">W</text>
	<text transform="matrix(1 0 0 1 329.4897 242.479)" class="st4 st6">E</text>
	<text transform="matrix(1 0 0 1 411.1094 242.479)" class="st4 st6">R</text>
	<text transform="matrix(1 0 0 1 490.4336 242.479)" class="st4 st6">T</text>
	<text transform="matrix(1 0 0 1 651.2764 242.479)" class="st4 st6">U</text>
	<text transform="matrix(1 0 0 1 734.3916 242.479)" class="st4 st6">I</text>
	<text transform="matrix(1 0 0 1 813.7158 242.479)" class="st4 st6">O</text>
	<text transform="matrix(1 0 0 1 892.6899 242.479)" class="st4 st6">P</text>
	<text transform="matrix(1 0 0 1 196.9277 322.6846)" class="st4 st6">A</text>
	<text transform="matrix(1 0 0 1 276.7378 322.6846)" class="st4 st6">S</text>
	<text transform="matrix(1 0 0 1 356.7603 322.6846)" class="st4 st6">D</text>
	<text transform="matrix(1 0 0 1 438.3794 322.6846)" class="st4 st6">F</text>
	<text transform="matrix(1 0 0 1 517.7031 322.6846)" class="st4 st6">G</text>
	<text transform="matrix(1 0 0 1 594.832 322.6846)" class="st4 st6">H</text>
	<text transform="matrix(1 0 0 1 678.5454 322.6846)" class="st4 st6">J</text>
	<text transform="matrix(1 0 0 1 757.1533 322.6846)" class="st4 st6">K</text>
	<text transform="matrix(1 0 0 1 839.938 322.6846)" class="st4 st6">L</text>
	<text transform="matrix(1 0 0 1 239.03 402.8896)" class="st4 st6">Z</text>
	<text transform="matrix(1 0 0 1 572.4791 242.4789)" class="st4 st6">Y</text>
	<text transform="matrix(1 0 0 1 319.4599 404.52)" class="st4 st6">X</text>
	<text transform="matrix(1 0 0 1 396.6724 402.8896)" class="st4 st6">C</text>
	<text transform="matrix(1 0 0 1 475.9971 402.8896)" class="st4 st6">V</text>
	<text transform="matrix(1 0 0 1 553.125 402.8896)" class="st4 st6">B</text>
	<text transform="matrix(1 0 0 1 636.8384 402.8896)" class="st4 st6">N</text>
	<text transform="matrix(1 0 0 1 719.9546 402.8896)" class="st4 st6">M</text>
	<text transform="matrix(1 0 0 1 916.207 357.3096)" class="st4 st6">;</text>
	<text transform="matrix(1 0 0 1 917.2539 322.0205)" class="st4 st6">:</text>
	<text transform="matrix(1 0 0 1 932.3027 145.0742)" class="st4 st6">_</text>
	<text transform="matrix(1 0 0 1 798.165 443.9658)" class="st4 st6">,</text>
	<text transform="matrix(1 0 0 1 877.1396 443.9658)" class="st4 st6">.</text>
	<text transform="matrix(1 0 0 1 933.3574 201.3584)" class="st4 st6">-</text>
	<text transform="matrix(1 0 0 1 208.0059 70.2178)" class="st4 st5">F1</text>
	<text transform="matrix(1 0 0 1 287.8154 70.2178)" class="st4 st5">F2</text>
	<text transform="matrix(1 0 0 1 367.1396 70.2178)" class="st4 st5">F3</text>
	<text transform="matrix(1 0 0 1 449.457 70.2178)" class="st4 st5">F4</text>
	<text transform="matrix(1 0 0 1 572.479 70.2188)" class="st4 st5">F5</text>
	<text transform="matrix(1 0 0 1 652.2886 70.2178)" class="st4 st5">F6</text>
	<text transform="matrix(1 0 0 1 732.311 70.2188)" class="st4 st5">F7</text>
	<text transform="matrix(1 0 0 1 813.9307 70.2188)" class="st4 st5">F8</text>
	<text transform="matrix(1 0 0 1 935.5557 70.2188)" class="st4 st5">F9</text>
	<text transform="matrix(1 0 0 1 1015.3662 70.2188)" class="st4 st5">F10</text>
	<text transform="matrix(1 0 0 1 1095.3887 70.2188)" class="st4 st5">F11</text>
	<text transform="matrix(1 0 0 1 1177.0078 70.2188)" class="st4 st5">F12</text>
	<path id="path1509" class="st7" d="M1402.2,479.9v19.7"/>
	<path id="path1516" class="st8" d="M1394.8,499.6l7.5,11l7.4-11H1394.8z"/>
	<path id="path1535" class="st7" d="M1402.2,429.7V410"/>
	<path id="path1536" class="st8" d="M1409.7,410l-7.5-11l-7.4,11H1409.7z"/>
	<path id="path1538" class="st7" d="M1467.4,495.3h19.7"/>
	<path id="path1539" class="st8" d="M1487.1,502.7l11-7.5l-11-7.4V502.7z"/>
	<path id="path1541" class="st7" d="M1336.6,495.2h-19.7"/>
	<path id="path1542" class="st8" d="M1316.9,487.8l-11,7.5l11,7.4V487.8z"/>
	<path id="path1550" class="st7" d="M1123.7,186.3H1104"/>
	<path id="path1551" class="st8" d="M1103.9,178.9l-11,7.5l11,7.4V178.9z"/>
	<path id="path1553" class="st9" d="M1107.3,361.4h-19.7"/>
	<path id="path1554" class="st8" d="M1088.6,357.1l-11,4.3l11,4.3V357.1z"/>
	<path id="path1557" class="st9" d="M1106.3,361.4V350"/>
	<path id="path1707" class="st7" d="M46,273.3h19.7"/>
	<path id="path1708" class="st8" d="M65.7,280.8l11-7.5l-11-7.4V280.8z"/>
	<path id="path1710" class="st7" d="M76.7,253.6H56.9"/>
	<path id="path1711" class="st8" d="M56.9,246.1l-11,7.5l11,7.4V246.1z"/>
	<path id="path1714" class="st7" d="M77.3,283.2v-19.7"/>
	<path id="path1715" class="st7" d="M45.5,263.2v-19.7"/>
	<path id="path1725" class="st7" d="M1402.2,429.7V410"/>
	<path id="path1726" class="st8" d="M1409.7,410l-7.5-11l-7.4,11H1409.7z"/>
	<path id="path1740" class="st10" d="M1057.4,428.9l-8.6-12.6l-8.5,12.6H1057.4z"/>
	<rect id="rect1741" x="1044.9" y="428.9" class="st10" width="8.1" height="13.2"/>
	<text transform="matrix(1 0 0 1 1287.0928 57.7285)" class="st4 st5">Prt Scr</text>
	<text transform="matrix(1 0 0 1 1366.7764 59.0073)" class="st4 st5">Scroll</text>
	<text transform="matrix(1 0 0 1 1416.0576 58.0073)" class="st4 st5"> </text>
	<text transform="matrix(1 0 0 1 1367.7764 79.1167)" class="st4 st5">Lock</text>
	<text transform="matrix(1 0 0 1 1448.748 57.4185)" class="st4 st5">Pause</text>
	<text transform="matrix(1 0 0 1 1505.7666 57.4185)" class="st4 st5"> </text>
	<text transform="matrix(1 0 0 1 1448.748 77.5278)" class="st4 st5">Break</text>
	<text transform="matrix(1 0 0 1 1369.5947 154.2744)" class="st4 st5">Home</text>
	<text transform="matrix(1 0 0 1 1288.8164 155.0469)" class="st4 st5">Insert</text>
	<text transform="matrix(1 0 0 1 1370.0508 233.376)" class="st4 st5">End</text>
	<text transform="matrix(1 0 0 1 1287.5146 236.459)" class="st4 st5">Delete</text>
	<text transform="matrix(1 0 0 1 1449.8701 154.2563)" class="st4 st5">Page</text>
	<text transform="matrix(1 0 0 1 1494.832 148.2563)" class="st4 st5"> </text>
	<text transform="matrix(1 0 0 1 1449.8701 174.3647)" class="st4 st5">Up</text>
	<text transform="matrix(1 0 0 1 1448.1475 234.5181)" class="st4 st5">Page</text>
	<text transform="matrix(1 0 0 1 1493.1113 232.5181)" class="st4 st5"> </text>
	<text transform="matrix(1 0 0 1 1448.1475 255.6265)" class="st4 st5">Down</text>
	<text transform="matrix(1 0 0 1 1565.8252 403.8906)" class="st4 st6">1</text>
	<text transform="matrix(1 0 0 1 1650.3828 399.7324)" class="st4 st6">2</text>
	<text transform="matrix(1 0 0 1 1730.6904 399.7324)" class="st4 st6">3</text>
	<text transform="matrix(1 0 0 1 1569.3232 319.1973)" class="st4 st6">4</text>
	<text transform="matrix(1 0 0 1 1650.0752 319.5498)" class="st4 st6">5</text>
	<text transform="matrix(1 0 0 1 1729.6035 319.5498)" class="st4 st6">6</text>
	<text transform="matrix(1 0 0 1 1567.4902 238.9092)" class="st4 st6">7</text>
	<text transform="matrix(1 0 0 1 1649.7412 239.2622)" class="st4 st6">8</text>
	<text transform="matrix(1 0 0 1 1730.0957 239.2622)" class="st4 st6">9</text>
	<text transform="matrix(1 0 0 1 1727.5195 160.3276)" class="st4 st6">*</text>
	<text transform="matrix(1 0 0 1 1813.6846 149.7275)" class="st4 st6">-</text>
	<text transform="matrix(1 0 0 1 1651.5557 158.8867)" class="st4 st6">/</text>
	<text transform="matrix(1 0 0 1 1568.3447 154.1733)" class="st4 st5">Num</text>
	<text transform="matrix(1 0 0 1 1608.8008 150.1733)" class="st4 st5"> </text>
	<text transform="matrix(1 0 0 1 1568.3447 174.2827)" class="st4 st5">Lock</text>
	<text transform="matrix(1 0 0 1 1811.4619 397.3604)" class="st4 st5">Enter</text>
	<text transform="matrix(1 0 0 1 1806.4746 236.3604)" class="st4 st6">+</text>
	<text transform="matrix(1 0 0 1 1729.1143 523.1533)" class="st4 st5">Del</text>
	<text transform="matrix(1 0 0 1 1728.7139 463.7305)" class="st4 st6">.</text>
	<text transform="matrix(1 0 0 1 1569.6396 523.1445)" class="st4 st5">Ins</text>
	<text transform="matrix(1 0 0 1 1567.4482 477.5273)" class="st4 st6">0</text>
	<path id="rect2485" class="st1" d="M1568.7,454.8H1716c3.1,0,5.6,2.5,5.6,5.6v67c0,3.1-2.5,5.6-5.6,5.6h-147.3
		c-3.1,0-5.6-2.5-5.6-5.6v-67C1563.1,457.3,1565.6,454.8,1568.7,454.8z"/>
	<path id="rect2486" class="st1" d="M1810.1,374.5h67c3.1,0,5.6,2.5,5.6,5.6v147.3c0,3.1-2.5,5.6-5.6,5.6h-67
		c-3.1,0-5.6-2.5-5.6-5.6V380C1804.6,377,1807.1,374.5,1810.1,374.5z"/>
	<path id="rect2487" class="st1" d="M1810.1,213.7h67c3.1,0,5.6,2.5,5.6,5.6v147.3c0,3.1-2.5,5.6-5.6,5.6h-67
		c-3.1,0-5.6-2.5-5.6-5.6V219.3C1804.6,216.2,1807.1,213.7,1810.1,213.7z"/>
	<path id="rect2489" class="st1" d="M1089.9,132.4h148.2c3.1,0,5.6,2.5,5.6,5.6v67c0,3.1-2.5,5.6-5.6,5.6h-148.2
		c-3.1,0-5.6-2.5-5.6-5.6v-67C1084.3,134.9,1086.8,132.4,1089.9,132.4z"/>
	<path id="path1530" class="st7" d="M1658.1,284.6v-19.7"/>
	<path id="path1531" class="st8" d="M1665.6,264.9l-7.5-11l-7.4,11H1665.6z"/>
	<path id="path1533" class="st7" d="M1658.1,415.8v19.7"/>
	<path id="path1534" class="st8" d="M1650.7,435.5l7.5,11l7.4-11H1650.7z"/>
	<path id="path1546" class="st7" d="M1727.2,358.5h19.7"/>
	<path id="path1547" class="st8" d="M1746.9,365.9l11-7.5l-11-7.4V365.9z"/>
	<path id="path1549" class="st7" d="M1600.8,358.5h-19.7"/>
	<path id="path1552" class="st8" d="M1581.1,351l-11,7.5l11,7.4V351z"/>
	<text transform="matrix(1 0 0 1 1033.7236 401.4814)" class="st4 st5">Shift</text>
	<path id="path1740_1_" class="st10" d="M68.8,428.9l-8.6-12.6l-8.5,12.6H68.8z"/>
	<rect id="rect1741_1_" x="56.2" y="428.9" class="st10" width="8.1" height="13.2"/>
	<text transform="matrix(1 0 0 1 45.0718 401.4814)" class="st4 st5">Shift</text>
	<path id="rect3952" class="st1" d="M1133.6,214.1h99.7c4.6,0,8.3,3.7,8.3,8.3v61.4c0,4.6-3.7,8.3-8.3,8.3h-99.7
		c-4.6,0-8.3-3.7-8.3-8.3v-61.4C1125.3,217.8,1129,214.1,1133.6,214.1z"/>
	<text transform="matrix(1 0 0 1 43.123 316.2012)" class="st4 st5">Caps</text>
	<text transform="matrix(1 0 0 1 90.0659 316.2012)" class="st4 st5"> </text>
	<text transform="matrix(1 0 0 1 43.123 336.3105)" class="st4 st5">Lock</text>
	<text transform="matrix(1 0 0 1 43.123 236.8027)" class="st4 st5">Tab</text>
	<text transform="matrix(1 0 0 1 1021.0146 204.2031)" class="st4 st6">=</text>
	<text transform="matrix(1 0 0 1 1015.1328 155.6816)" class="st4 st6">+</text>
	<text transform="matrix(1 0 0 1 1088.7109 154.5229)" class="st4 st5">Backspace</text>
	<text transform="matrix(1 0 0 1 972.0605 238.0278)" class="st4 st6">{</text>
	<text transform="matrix(1 0 0 1 971.5557 285.0791)" class="st4 st6">[</text>
	<text transform="matrix(1 0 0 1 1052.6777 237.7754)" class="st4 st6">}</text>
	<text transform="matrix(1 0 0 1 1052.6777 282.1377)" class="st4 st6">]</text>
	<text transform="matrix(1 0 0 1 1130.6055 238.0278)" class="st4 st6">|</text>
	<text transform="matrix(1 0 0 1 1128.1699 282.1377)" class="st4 st6">\</text>
	<text transform="matrix(1 0 0 1 989.957 320.1152)" class="st4 st6">&quot;</text>
	<text transform="matrix(1 0 0 1 993.8633 366.9131)" class="st4 st6">&apos;</text>
	<text transform="matrix(1 0 0 1 957.1045 443.876)" class="st4 st6">/</text>
	<text transform="matrix(1 0 0 1 958.5752 398.2949)" class="st4 st6">?</text>
	<text transform="matrix(1 0 0 1 874.7656 395.3545)" class="st4 st6">&gt;</text>
	<text transform="matrix(1 0 0 1 799.7783 395.3545)" class="st4 st6">&lt;</text>
	<text transform="matrix(1 0 0 1 1073.1699 315.5137)" class="st4 st5">Enter</text>
	<g>
		<path class="st11" d="M1671.6,92.3h-14.4l5.8-27.2h14.4l-0.8,3.8h-10l-1.6,7.3h9.3l-0.8,3.8h-9.4l-1.8,8.5h10L1671.6,92.3z"/>
		<path class="st11" d="M1681.1,92.3h-4.3l6.1-28.9h4.4L1681.1,92.3z"/>
		<path class="st11" d="M1695.9,92.7c-2.4,0-4.3-0.7-5.7-2.1s-2.1-3.3-2.1-5.8s0.5-4.7,1.4-6.8c1-2.1,2.3-3.7,3.9-4.9
			c1.6-1.2,3.5-1.7,5.5-1.7s3.6,0.4,4.7,1.3s1.7,2.2,1.7,3.8c0,2.3-1,4-3.1,5.3s-5,1.9-8.8,1.9h-0.8v0.6v0.5c0,1.4,0.3,2.5,1.1,3.2
			c0.7,0.8,1.7,1.2,3.1,1.2c0.9,0,1.8-0.1,2.7-0.4c0.9-0.2,1.9-0.6,3.1-1.2v3.5c-1.2,0.6-2.3,0.9-3.3,1.2
			C1698.2,92.5,1697.1,92.7,1695.9,92.7z M1698.7,74.7c-1.2,0-2.3,0.5-3.3,1.6s-1.8,2.5-2.3,4.2h0.5c2.3,0,4.2-0.3,5.5-1
			s2-1.6,2-2.8c0-0.6-0.2-1.1-0.6-1.5C1700.1,74.9,1699.5,74.7,1698.7,74.7z"/>
		<path class="st11" d="M1715.7,92.7c-2.4,0-4.3-0.7-5.7-2s-2-3.2-2-5.6c0-2.6,0.4-4.9,1.4-7c0.9-2.1,2.2-3.7,3.8-4.9
			c1.6-1.2,3.5-1.8,5.6-1.8c2,0,3.9,0.4,5.5,1.1l-1.3,3.4c-1.5-0.7-2.9-1-4.1-1c-1.9,0-3.4,0.9-4.7,2.9c-1.2,1.9-1.9,4.3-1.9,7.1
			c0,1.4,0.3,2.4,1,3.2c0.7,0.8,1.7,1.1,2.9,1.1c0.9,0,1.8-0.1,2.6-0.4c0.8-0.3,1.6-0.6,2.4-1v3.6
			C1719.7,92.2,1717.8,92.7,1715.7,92.7z"/>
		<path class="st11" d="M1732.5,89.1c0.8,0,1.8-0.2,2.8-0.6v3.3c-0.4,0.2-1,0.4-1.8,0.6c-0.7,0.2-1.5,0.2-2.2,0.2
			c-3.4,0-5.1-1.5-5.1-4.6c0-0.7,0.1-1.5,0.3-2.4l2.2-10.6h-3l0.4-2.1l3.5-1.5l2.4-4.3h2.7l-1,4.6h5.2l-0.7,3.3h-5.2l-2.3,10.6
			c-0.2,0.7-0.2,1.2-0.2,1.7s0.2,1,0.5,1.3C1731.4,89,1731.9,89.1,1732.5,89.1z"/>
		<path class="st11" d="M1752.9,71.3c0.8,0,1.4,0.1,2,0.2l-0.9,4.1c-0.7-0.2-1.3-0.3-1.9-0.3c-1.6,0-2.9,0.7-4.2,2.1
			c-1.2,1.4-2.1,3.2-2.6,5.5l-2,9.3h-4.4l4.4-20.6h3.4l-0.4,3.8h0.2c1-1.5,2.1-2.6,3.1-3.2C1750.6,71.7,1751.7,71.3,1752.9,71.3z"/>
		<path class="st11" d="M1773.6,79.4c0,2.5-0.4,4.8-1.4,6.8c-0.9,2.1-2.2,3.6-3.7,4.7c-1.6,1.1-3.4,1.6-5.5,1.6
			c-2.4,0-4.3-0.7-5.7-2.1c-1.4-1.4-2.1-3.3-2.1-5.8s0.4-4.7,1.3-6.8c0.9-2.1,2.1-3.7,3.7-4.8c1.6-1.2,3.4-1.7,5.5-1.7
			c2.4,0,4.3,0.7,5.7,2.2C1773,75,1773.6,76.9,1773.6,79.4z M1769.2,79.2c0-1.3-0.3-2.4-0.9-3.1s-1.5-1.1-2.6-1.1
			c-1.2,0-2.2,0.4-3.1,1.3s-1.6,2.1-2.1,3.6s-0.8,3.1-0.8,4.9c0,1.4,0.3,2.4,0.9,3.2c0.6,0.7,1.5,1.1,2.7,1.1c1.1,0,2.1-0.4,3-1.3
			c0.9-0.8,1.6-2,2.1-3.5C1769,82.7,1769.2,81.1,1769.2,79.2z"/>
		<path class="st11" d="M1788.5,92.3l2.6-12.5c0.2-1.1,0.3-1.9,0.3-2.4c0-1.6-0.8-2.4-2.4-2.4c-0.9,0-1.8,0.4-2.7,1.1
			c-0.9,0.7-1.6,1.7-2.3,3.1c-0.7,1.3-1.2,2.8-1.6,4.5l-1.8,8.7h-4.4l4.4-20.6h3.4l-0.4,3.8h0.2c1-1.5,2.1-2.5,3.2-3.2s2.3-1,3.6-1
			c1.7,0,2.9,0.5,3.9,1.4s1.4,2.3,1.4,4c0,0.8-0.1,2-0.4,3.4l-2.6,12.1H1788.5L1788.5,92.3L1788.5,92.3z"/>
		<path class="st11" d="M1803.1,92.3h-4.4l4.4-20.6h4.4L1803.1,92.3z M1804,66.7c0-0.8,0.2-1.5,0.7-2.1c0.5-0.5,1.2-0.8,2.1-0.8
			c0.7,0,1.2,0.2,1.6,0.5s0.6,0.8,0.6,1.5c0,0.9-0.2,1.6-0.8,2.1c-0.5,0.5-1.2,0.8-1.9,0.8c-0.7,0-1.2-0.2-1.6-0.5
			C1804.2,67.9,1804,67.3,1804,66.7z"/>
		<path class="st11" d="M1817.8,92.7c-2.4,0-4.3-0.7-5.7-2s-2-3.2-2-5.6c0-2.6,0.4-4.9,1.4-7c0.9-2.1,2.2-3.7,3.8-4.9
			c1.6-1.2,3.5-1.8,5.6-1.8c2,0,3.9,0.4,5.5,1.1l-1.3,3.4c-1.5-0.7-2.9-1-4.1-1c-1.9,0-3.4,0.9-4.7,2.9c-1.2,1.9-1.9,4.3-1.9,7.1
			c0,1.4,0.3,2.4,1,3.2c0.7,0.8,1.7,1.1,2.9,1.1c0.9,0,1.8-0.1,2.6-0.4c0.8-0.3,1.6-0.6,2.4-1v3.6
			C1821.7,92.2,1819.8,92.7,1817.8,92.7z"/>
		<path class="st11" d="M1840.6,86c0,2.1-0.7,3.8-2.2,4.9c-1.5,1.2-3.5,1.7-6.1,1.7c-2.3,0-4.3-0.4-6-1.2v-3.8
			c1.9,1.1,3.8,1.7,5.8,1.7c1.2,0,2.2-0.2,2.9-0.8s1.1-1.2,1.1-2c0-0.6-0.2-1.2-0.6-1.6s-1.3-1.1-2.6-1.8c-1.6-0.8-2.7-1.7-3.3-2.5
			c-0.6-0.9-1-1.9-1-3.1c0-1.9,0.7-3.4,2-4.5s3.1-1.6,5.4-1.6c2.4,0,4.6,0.5,6.4,1.6l-1.4,3.3c-1.7-0.9-3.4-1.4-4.9-1.4
			c-0.9,0-1.6,0.2-2.2,0.6s-0.8,1-0.8,1.7c0,0.6,0.2,1.1,0.6,1.5s1.2,1,2.5,1.7s2.2,1.4,2.8,1.9s1,1.1,1.2,1.7
			C1840.5,84.4,1840.6,85.2,1840.6,86z"/>
	</g>
	<path class="st11" d="M1597.6,75.3c0.1-0.1,0.2-0.1,0.2-0.1c0.9-0.5,1.9-0.9,2.8-1.4c0.2-0.1,0.3-0.1,0.4,0
		c7.8,5.9,15.7,11.9,23.6,17.8c0.1,0.1,0.2,0.1,0.3,0.2c0-0.1,0-0.2,0-0.3c0-6.6-0.1-13.1-0.1-19.7c0-3.3,0-6.6-0.1-9.9
		c0-0.2,0.1-0.4,0.3-0.5c0.9-0.4,1.8-0.9,2.7-1.3c0.1,0,0.2-0.1,0.3-0.2c0,12.7,0,25.4,0,38.1C1617.9,90.5,1607.8,82.9,1597.6,75.3z
		"/>
	<path class="st11" d="M1594.9,65.3c0,0.2,0,0.2,0,0.3c0,6.6,0.1,13.1,0.1,19.6c0,3.3,0,6.6,0.1,9.8c0,0.3-0.1,0.5-0.4,0.6
		c-0.8,0.4-1.7,0.8-2.5,1.2c-0.1,0.1-0.2,0.1-0.4,0.2c0-12.7,0-25.4,0-38.1c10.2,7.6,20.3,15.2,30.5,22.8c-1,0.5-1.9,0.9-2.9,1.4
		c-0.3,0.2-0.5,0.2-0.8-0.1c-6-4.6-12-9.1-18-13.7c-1.8-1.4-3.6-2.8-5.5-4.1C1595.1,65.4,1595,65.4,1594.9,65.3z"/>
</g>
</svg>
