<?xml version="1.0" encoding="utf-8"?>
<!-- Generator: Adobe Illustrator 24.2.3, SVG Export Plug-In . SVG Version: 6.00 Build 0)  -->
<svg version="1.1" id="Livello_1" xmlns="http://www.w3.org/2000/svg" xmlns:xlink="http://www.w3.org/1999/xlink" x="0px" y="0px"
	 viewBox="0 0 1080 1080" style="enable-background:new 0 0 1080 1080;" xml:space="preserve">
<path d="M364.4,535.4c-11.5-1.9-22.4-3.5-33.2-5.6c-30.5-5.7-60.4-13.7-89.1-25.7c-12-5-23.6-10.8-34.6-17.8
	c-12.3-7.8-23.2-17.1-32.4-28.5c-13.8-17-27.1-34.4-38.6-53c-18.8-30.4-31-63.3-36.9-98.5c-2.2-13-3.8-26-5.2-39.1
	c-1.3-12.5-2.2-25.1-2.2-37.6c0-4.9,0.4-9.7,0.8-14.6c0.1-1.8,0.6-3.7,1.2-5.4c2.4-7.3,6-13.9,11-19.7c7.2-8.3,16.2-13.4,27.3-14.5
	c12.4-1.2,24.7-2.3,37.1-3.4c10-0.8,19.9-1.5,29.9-2.2c6.7-0.5,13.4-0.8,20.1-1.2c1.5-0.1,3.1-0.2,4.7-0.4c0.1-0.8,0.4-1.3,0.3-1.8
	c-1.2-12.5-2.5-25-3.7-37.5c-0.5-5-1-10-1.3-14.9c-0.5-7.7,0.7-15.1,3.7-22.2c5.4-12.8,15.2-19.8,29-20.9c9-0.7,18-0.8,27-0.8
	c71.5-0.5,142.9-1,214.4-1.3c48-0.2,96.1,0,144.1,0.2c56.6,0.3,113.2,0.7,169.8,1.1c6.4,0,12.9,0.3,19.3,0.7
	c2.5,0.1,5.1,0.6,7.6,1.3c9,2.5,15.7,8,20.1,16.2c4.2,7.9,5.8,16.4,5.3,25.3c-0.3,4.8-0.8,9.7-1.3,14.5c-1.2,12.7-2.5,25.3-3.8,38
	c-0.1,0.5,0.1,1.1,0.1,1.9c1.2,0.2,2.2,0.4,3.3,0.5c14.8,1,29.7,1.7,44.5,2.9c14.7,1.1,29.3,2.6,44,4c9.6,0.9,17.8,5,24.6,11.8
	c6.7,6.7,11.3,14.7,13.8,23.9c0.9,3.4,1.2,7,1.3,10.6c0.4,8.3,0.4,16.6-0.4,24.9c-0.9,10.8-1.7,21.7-2.9,32.4
	c-2.5,22.5-6.3,44.7-13.2,66.3c-7.4,23.2-17.9,44.8-31,65.3c-11.8,18.5-25.1,35.8-39.3,52.5c-6.4,7.6-14,13.8-22.2,19.5
	c-13.1,9.1-27.2,16.2-41.9,22.3c-21.4,8.9-43.6,15.4-66.2,20.6c-14.8,3.4-29.6,6.1-44.6,8.4c-2.8,0.4-5.7,0.8-8.5,1.1
	c-0.4,0.3-0.7,0.5-1,0.8c-7.9,9.5-16.8,17.9-26.4,25.7c-14,11.3-28.1,22.5-42.3,33.6c-11.6,9.1-22.3,19.3-31,31.3
	c-12.6,17.4-19.9,36.8-22.1,58.2c-1.5,14.8-0.7,29.4,1.6,44c1.5,9.6,3.5,19.1,6.7,28.3c6.7,19.5,17.6,36.4,32,51.2
	c9.8,10.1,20.9,18.7,32.7,26.3c4.4,2.9,9,5.6,13.4,8.5c5.5,3.5,10.3,7.7,14,13.1c1.5,2.2,3,4.6,4,7.1C710,893,722.1,923,734,953
	c4.1,10.4,7.6,20.9,11.3,31.5c1.2,3.5,2.2,7.1,2.3,10.9c0.3,7.7-3.3,13.1-10.1,16.4c-3.4,1.6-7,2.4-10.8,2.4
	c-29.9,0-59.8-0.1-89.6-0.1c-56.5,0-112.9,0-169.4,0c-38,0-76,0-114.1,0.1c-4.6,0-8.8-1.1-12.7-3.4c-6.2-3.6-8.9-9.2-8.2-16.2
	c0.3-3,0.9-6,1.9-8.8c3.9-11.2,7.6-22.5,11.9-33.5c11-27.8,22.2-55.4,33.4-83.1c0.5-1.2,1-2.4,1.4-3.6c3-8.5,8.6-15.1,15.7-20.4
	c2.5-1.9,5.2-3.5,7.9-5.2c10.9-6.6,21.4-13.7,31.1-22c15.6-13.4,28.3-29,37.3-47.6c5.7-12,9.3-24.5,11.6-37.5
	c1.7-9.4,2.8-18.9,3-28.5c1.1-34.4-9.4-64.7-33-90.1c-6.7-7.2-14.2-13.7-22-19.8c-13-10.1-25.9-20.2-38.7-30.5
	C383.4,555.3,373.1,546,364.4,535.4z M293.8,430.3c-0.6-1.5-0.9-2.4-1.3-3.2c-11.1-22.4-20.7-45.5-29.3-69
	c-11.6-31.7-21-64-27.2-97.2c-0.2-0.9-0.6-1.8-0.9-2.8c-6.4-0.9-12.5-0.7-18.6,0.3c-4,0.6-7.8,1.7-11.4,3.5
	c-9.3,4.5-14.3,11.9-15.4,22.1c-0.7,6.3,0,12.6,1.5,18.7c2.9,11.5,7.1,22.6,11.6,33.6c6.4,15.4,14.1,30,23.9,43.5
	c16,22,36.5,38.4,61.8,48.7C290,429,291.6,429.5,293.8,430.3z M786.3,429.7c0.4,0.2,0.5,0.4,0.6,0.3c0.8-0.2,1.7-0.4,2.4-0.7
	c11.5-4.5,22.3-10.3,32.2-17.6c15.8-11.6,28.3-26.1,38.5-42.7c12.3-20,20.9-41.5,27.5-64c2-6.8,2.8-13.7,2.1-20.8
	c-0.8-8.4-4.4-15.4-11.6-20.1c-2.4-1.5-5-2.7-7.7-3.8c-6.7-2.5-13.6-3-20.7-2.8c-1.8,0.1-3.7,0-5.7,0.8
	C832.8,318.1,812.7,375,786.3,429.7z"/>
</svg>
