<?xml version="1.0" encoding="utf-8"?>
<!-- Generator: Adobe Illustrator 24.2.3, SVG Export Plug-In . SVG Version: 6.00 Build 0)  -->
<svg version="1.1" id="Livello_1" xmlns="http://www.w3.org/2000/svg" xmlns:xlink="http://www.w3.org/1999/xlink" x="0px" y="0px"
	 viewBox="0 0 1080 1080" style="enable-background:new 0 0 1080 1080;" xml:space="preserve">
<path d="M707.9,356.4c-27.6-169.8-92.6-289-168.3-289s-140.7,119.2-168.3,289H707.9z M357,539c0,42.2,2.3,82.7,6.3,121.7h352.4
	c4-39,6.3-79.5,6.3-121.7s-2.3-82.7-6.3-121.7H363.3C359.3,456.3,357,496.8,357,539z M974.5,356.4C920.1,227.3,810,127.5,674,87.2
	c46.4,64.3,78.3,161.1,95.1,269.3H974.5z M405,87.2c-135.8,40.3-246.1,140.1-300.3,269.3h205.4C326.6,248.2,358.6,151.5,405,87.2
	L405,87.2z M994.8,417.3H776.7c4,39.9,6.3,80.8,6.3,121.7s-2.3,81.8-6.3,121.7h217.9c10.5-39,16.4-79.5,16.4-121.7
	S1005.1,456.3,994.8,417.3L994.8,417.3z M296.2,539c0-40.9,2.3-81.8,6.3-121.7H84.4C74.1,456.3,68,496.8,68,539s6.1,82.7,16.4,121.7
	h217.9C298.5,620.8,296.2,579.9,296.2,539z M371.3,721.6c27.6,169.8,92.6,289,168.3,289s140.7-119.2,168.3-289H371.3z M674.2,990.8
	C810,950.5,920.3,850.7,974.7,721.6H769.3C752.6,829.8,720.6,926.5,674.2,990.8z M104.7,721.6c54.4,129.1,164.5,229,300.5,269.3
	c-46.4-64.3-78.3-161.1-95.1-269.3C310.1,721.6,104.7,721.6,104.7,721.6z"/>
</svg>
