<?xml version="1.0" encoding="utf-8"?>
<!-- Generator: Adobe Illustrator 24.2.3, SVG Export Plug-In . SVG Version: 6.00 Build 0)  -->
<svg version="1.1" id="Livello_1" xmlns="http://www.w3.org/2000/svg" xmlns:xlink="http://www.w3.org/1999/xlink" x="0px" y="0px"
	 viewBox="0 0 1080 1080" style="enable-background:new 0 0 1080 1080;" xml:space="preserve">
<style type="text/css">
	.st0{fill:#010101;}
</style>
<path class="st0" d="M938.2,494.2l-177,177c-97.7,97.8-256.2,97.8-354,0c-15.4-15.3-27.4-32.6-38-50.5l82.3-82.3
	c3.9-3.9,8.7-6.2,13.4-8.9c5.7,19.4,15.6,37.8,30.9,53.1c48.8,48.8,128.2,48.8,177,0l177-177c48.8-48.8,48.8-128.2,0-177
	c-48.8-48.8-128.2-48.8-177,0l-62.9,63c-51.1-19.9-106.1-25.2-159.7-17.4l134.1-134.1c97.8-97.8,256.2-97.8,354,0
	C1035.9,237.9,1035.9,396.4,938.2,494.2z M470.2,785.2l-63,63c-48.8,48.8-128.2,48.8-177,0c-48.8-48.8-48.8-128.2,0-177l177-177
	c48.8-48.8,128.2-48.8,177,0c15.2,15.2,25.2,33.6,30.9,53c4.6-2.7,9.4-4.9,13.3-8.8l82.3-82.2c-10.5-17.9-22.6-35.1-38-50.5
	c-97.7-97.8-256.2-97.8-354,0l-177,177c-97.8,97.8-97.8,256.2,0,354c97.8,97.7,256.2,97.7,354,0l134.1-134.1
	C576.2,810.4,521.2,805.1,470.2,785.2z"/>
</svg>
