<?xml version="1.0" encoding="utf-8"?>
<!-- Generator: Adobe Illustrator 24.0.2, SVG Export Plug-In . SVG Version: 6.00 Build 0)  -->
<svg version="1.0" id="Livello_1" xmlns="http://www.w3.org/2000/svg" xmlns:xlink="http://www.w3.org/1999/xlink" x="0px" y="0px"
	 viewBox="0 0 800 800" style="enable-background:new 0 0 800 800;" xml:space="preserve">
<style type="text/css">
	.st0{fill:none;}
	.st1{fill:#020203;}
</style>
<rect x="-0.2" y="-0.2" class="st0" width="799.6" height="799.6"/>
<path class="st1" d="M678.3,657.7H121.9c-13.2,0-24-10.7-24-24v-55.1c0-13.2,10.7-24,24-24h556.5c13.2,0,24,10.7,24,24v55.1
	C702.3,646.9,691.6,657.7,678.3,657.7z"/>
<path class="st1" d="M678.3,452.6H121.9c-13.2,0-24-10.7-24-24v-55.1c0-13.2,10.7-24,24-24h556.5c13.2,0,24,10.7,24,24v55.1
	C702.3,441.8,691.6,452.6,678.3,452.6z"/>
<path class="st1" d="M678.3,246.5H121.9c-13.2,0-24-10.7-24-24v-55.1c0-13.2,10.7-24,24-24h556.5c13.2,0,24,10.7,24,24v55.1
	C702.3,235.7,691.6,246.5,678.3,246.5z"/>
</svg>
