<?xml version="1.0" encoding="utf-8"?>
<!-- Generator: Adobe Illustrator 24.2.3, SVG Export Plug-In . SVG Version: 6.00 Build 0)  -->
<svg version="1.1" id="Livello_1" xmlns="http://www.w3.org/2000/svg" xmlns:xlink="http://www.w3.org/1999/xlink" x="0px" y="0px"
	 viewBox="0 0 1080 1080" style="enable-background:new 0 0 1080 1080;" xml:space="preserve">
<path id="XMLID_526_" d="M337.1,260v453.7c-16.7-5.7-34.7-8.8-53.4-8.8c-88.5,0-160.2,69.1-160.2,154.4s71.7,154.4,160.2,154.4
	S444,944.6,444,859.3V409.4l373.9-103V585c-16.7-5.7-34.7-8.8-53.4-8.8c-88.5,0-160.2,69.1-160.2,154.4S675.9,885,764.4,885
	s160.2-69.1,160.2-154.4V110.9c0-20.2-19.2-34.9-38.7-29.7L367.9,219.9C349.7,224.8,337.1,241.2,337.1,260z"/>
</svg>
