<?xml version="1.0" encoding="utf-8"?>
<!-- Generator: Adobe Illustrator 24.2.3, SVG Export Plug-In . SVG Version: 6.00 Build 0)  -->
<svg version="1.1" id="Livello_1" xmlns="http://www.w3.org/2000/svg" xmlns:xlink="http://www.w3.org/1999/xlink" x="0px" y="0px"
	 viewBox="0 0 1080 1080" style="enable-background:new 0 0 1080 1080;" xml:space="preserve">
<g>
	<path d="M539.4,70.9c96.8,1.7,199.4,10.4,296.5,47c28.4,10.7,55.9,26.5,79.5,44.9c32.2,25,30.9,57.4,0.8,84.7
		c-34.2,31.1-77.3,47.1-122,58.3c-189.4,47.2-378.2,47.4-564.5-13c-29.9-9.7-58.4-27.3-83.1-46.4c-31.4-24.2-29.9-56.5-0.8-83.3
		c36.1-33.3,82.4-48.5,129.5-61.2C359.3,79.2,445.5,71.5,539.4,70.9z"/>
	<path d="M123.5,327.1c248,119.7,567.6,119,816.1,0c0.4,35.6,0,72.5-4,107c-3,17.9-20.9,36.3-36.7,48.3
		c-47.5,35.9-104.1,51.4-161.5,62.4c-161.5,31.2-322.2,30-480.4-18.5c-33.8-10.3-63.3-23.7-94-41.7c-26-15.3-38.5-44.6-39-76.7
		C123.5,381.1,123.5,359.9,123.5,327.1z"/>
	<path d="M123.5,549.7c248,119.7,567.6,119,816.1,0c0.4,35.6,0,72.5-4,107c-3,17.9-20.9,36.3-36.7,48.3
		c-47.5,35.9-104.1,51.4-161.5,62.4c-161.5,31.2-322.2,30-480.4-18.5c-33.8-10.3-63.3-23.7-94-41.7c-26-15.3-38.5-44.6-39-76.7
		C123.5,603.7,123.5,582.4,123.5,549.7z"/>
	<path d="M123.5,766.2c248,119.7,567.6,119,816.1,0c0.4,35.6,0,72.5-4,107c-3,17.9-20.9,36.3-36.7,48.3
		c-47.5,35.9-104.1,51.4-161.5,62.4c-161.5,31.2-322.2,30-480.4-18.5c-33.8-10.3-63.3-23.7-94-41.7c-26-15.3-38.5-44.6-39-76.7
		C123.5,820.2,123.5,798.9,123.5,766.2z"/>
</g>
</svg>
