<?xml version="1.0" standalone="no"?>
<!DOCTYPE svg PUBLIC "-//W3C//DTD SVG 20010904//EN"
 "http://www.w3.org/TR/2001/REC-SVG-20010904/DTD/svg10.dtd">
<svg version="1.0" xmlns="http://www.w3.org/2000/svg"
 width="2000.000000pt" height="2000.000000pt" viewBox="0 0 2000.000000 2000.000000"
 preserveAspectRatio="xMidYMid meet">
<metadata>
Created by potrace 1.11, written by Peter Selinger 2001-2013
</metadata>
<g transform="translate(0.000000,2000.000000) scale(0.100000,-0.100000)"
fill="#000000" stroke="none">
<path d="M9550 15155 c0 -4 815 -1103 830 -1119 7 -7 235 426 235 446 0 4
-135 92 -300 196 -165 103 -405 254 -532 335 -128 80 -233 144 -233 142z"/>
<path d="M9603 14910 c97 -220 411 -907 417 -913 3 -4 68 -6 144 -5 l137 3
-356 480 c-197 264 -359 482 -362 485 -3 3 6 -20 20 -50z"/>
<path d="M10555 14165 l-117 -227 127 -916 c69 -505 128 -921 130 -927 2 -5 7
1 11 14 6 21 8 22 13 8 4 -11 82 146 216 435 115 249 217 471 228 493 l19 41
-252 649 c-139 358 -254 651 -255 653 -2 2 -55 -99 -120 -223z"/>
<path d="M7950 14294 c0 -3 143 -192 317 -420 l317 -415 113 118 c61 65 112
120 112 123 0 3 -156 113 -346 245 -191 132 -385 266 -430 298 -46 31 -83 55
-83 51z"/>
<path d="M8275 14182 c10 -9 518 -361 543 -376 9 -5 12 8 12 53 l0 61 -227
111 c-260 127 -342 165 -328 151z"/>
<path d="M14611 13940 c-241 -163 -289 -200 -270 -204 47 -10 2241 -267 2251
-264 12 4 -1655 668 -1674 667 -7 0 -145 -90 -307 -199z"/>
<path d="M13685 13832 c-522 -135 -952 -247 -953 -248 -7 -4 -183 -906 -178
-911 2 -3 358 232 790 522 611 409 786 531 786 547 0 16 5 19 21 15 16 -4 84
36 268 159 135 90 239 164 231 163 -8 0 -442 -111 -965 -247z"/>
<path d="M10055 13868 c4 -18 90 -406 191 -863 l183 -830 78 -73 c91 -85 118
-103 110 -75 -3 10 -63 435 -133 946 l-129 927 -153 0 -154 0 7 -32z"/>
<path d="M8920 13788 c0 -60 -15 -47 185 -152 l90 -48 -90 86 c-49 48 -111
105 -137 127 l-48 41 0 -54z"/>
<path d="M14263 13633 c3 -15 42 -135 87 -265 78 -225 83 -236 103 -229 49 18
79 22 71 10 -5 -9 5 -11 37 -7 1311 151 2006 234 1992 240 -10 4 -520 66
-1133 138 -613 72 -1126 133 -1139 136 -21 5 -23 2 -18 -23z"/>
<path d="M13452 13163 c-391 -262 -710 -478 -709 -479 4 -4 1588 423 1594 430
4 4 -165 526 -171 526 -1 0 -322 -215 -714 -477z"/>
<path d="M8747 13507 l-116 -124 139 -344 139 -344 272 -83 c149 -46 274 -81
276 -78 5 5 -570 1072 -586 1089 -4 4 -60 -48 -124 -116z"/>
<path d="M9033 13512 c229 -425 533 -982 537 -982 3 0 65 57 138 126 l132 125
-190 281 -190 281 -227 123 c-126 68 -231 124 -235 124 -4 0 12 -35 35 -78z"/>
<path d="M11983 12843 l-629 -637 132 -404 c72 -222 134 -405 136 -407 2 -2
173 243 380 546 207 302 373 549 369 549 -4 0 -30 -7 -56 -15 -27 -8 -51 -13
-52 -11 -2 2 32 27 76 56 44 28 86 59 93 67 11 13 190 883 183 891 -1 1 -285
-284 -632 -635z"/>
<path d="M5064 13113 c62 -186 114 -343 117 -350 3 -8 32 -4 103 18 54 16 104
29 110 29 6 0 -22 -22 -63 -47 -41 -26 -70 -48 -65 -50 167 -46 2406 -604
2410 -600 5 5 -133 1037 -139 1043 -2 2 -2557 294 -2574 294 -6 0 35 -140 101
-337z"/>
<path d="M3634 12697 c-667 -403 -1209 -733 -1205 -734 12 -5 2666 765 2665
774 -9 50 -230 693 -238 693 -6 0 -556 -330 -1222 -733z"/>
<path d="M7645 13025 c4 -22 35 -244 69 -493 43 -313 67 -457 77 -466 23 -23
2080 -1376 2073 -1364 -6 10 -2099 2233 -2196 2333 l-29 30 6 -40z"/>
<path d="M13395 12767 c-467 -127 -852 -231 -854 -233 -3 -3 247 -1037 252
-1040 1 0 184 187 406 415 223 229 551 566 729 749 179 183 323 334 321 335
-2 2 -386 -100 -854 -226z"/>
<path d="M8087 12718 c137 -145 576 -611 977 -1035 400 -425 730 -773 732
-773 3 0 -36 60 -86 133 -50 72 -283 413 -518 757 l-427 624 -455 277 c-250
153 -459 278 -463 278 -5 1 103 -117 240 -261z"/>
<path d="M10958 12393 l-238 -513 0 -929 0 -929 118 -103 117 -102 8 39 c4 21
70 539 147 1149 l139 1110 -24 375 c-14 206 -26 384 -27 395 -2 11 -110 -211
-240 -492z"/>
<path d="M9759 12583 c-74 -70 -134 -132 -134 -136 0 -11 650 -887 652 -879 1
4 18 132 37 285 l35 277 -226 288 c-125 158 -227 288 -228 290 -2 2 -63 -55
-136 -125z"/>
<path d="M4708 12358 c-240 -156 -434 -286 -430 -289 9 -8 1879 -352 1890
-347 9 3 -998 909 -1016 916 -4 1 -204 -125 -444 -280z"/>
<path d="M5511 12438 c600 -539 815 -731 827 -735 7 -3 286 72 619 168 334 95
602 174 597 175 -5 2 -502 127 -1104 279 -602 152 -1104 278 -1114 282 -11 3
68 -73 175 -169z"/>
<path d="M8887 12568 c-8 -18 -19 -50 -26 -70 l-12 -37 651 -721 c359 -397
653 -720 655 -718 11 11 104 411 98 421 -15 25 -694 939 -711 957 -15 16 -595
200 -631 200 -6 0 -17 -15 -24 -32z"/>
<path d="M3733 12247 c-611 -177 -1108 -323 -1104 -325 8 -3 1416 153 1477
163 22 4 734 452 763 481 12 11 -109 -22 -1136 -319z"/>
<path d="M13905 12500 c-18 -19 -17 -20 3 -20 15 0 22 6 22 20 0 11 -2 20 -3
20 -2 0 -12 -9 -22 -20z"/>
<path d="M12095 11924 c-437 -639 -401 -583 -378 -579 10 2 237 25 506 51 268
26 487 51 487 55 0 4 -54 227 -120 496 -66 268 -120 491 -120 495 0 5 -3 8 -7
8 -5 0 -170 -237 -368 -526z"/>
<path d="M13820 12415 l-23 -25 26 0 c22 0 27 5 27 25 0 14 -1 25 -3 25 -2 0
-14 -11 -27 -25z"/>
<path d="M13729 12324 l-24 -26 30 4 c22 2 31 9 33 26 4 29 -9 28 -39 -4z"/>
<path d="M13650 12245 l-23 -25 26 0 c22 0 27 5 27 25 0 14 -1 25 -3 25 -2 0
-14 -11 -27 -25z"/>
<path d="M13570 12155 c-23 -24 -23 -25 -3 -25 14 0 22 8 25 25 3 14 4 25 3
25 -1 0 -12 -11 -25 -25z"/>
<path d="M13485 12070 c-18 -19 -17 -20 3 -20 15 0 22 6 22 20 0 11 -2 20 -3
20 -2 0 -12 -9 -22 -20z"/>
<path d="M10426 12029 c-3 -13 -21 -152 -41 -309 -19 -157 -51 -404 -70 -550
-19 -146 -35 -272 -34 -280 0 -17 339 965 339 984 0 7 -33 42 -72 76 -40 35
-83 72 -95 83 -22 19 -22 19 -27 -4z"/>
<path d="M11320 12006 c0 -4 -54 -437 -120 -963 -67 -526 -120 -957 -118 -958
5 -5 453 1137 453 1154 0 9 6 26 12 38 11 18 -2 68 -103 374 -106 324 -124
376 -124 355z"/>
<path d="M13401 11986 l-24 -26 22 0 c22 0 36 20 29 40 -2 6 -14 0 -27 -14z"/>
<path d="M7102 11823 c-337 -97 -609 -180 -605 -184 11 -9 3365 -1060 3370
-1056 4 5 -2119 1405 -2139 1412 -7 2 -289 -76 -626 -172z"/>
<path d="M9227 11905 c82 -124 906 -1325 909 -1325 2 0 4 73 4 163 l-1 162
-420 465 c-232 256 -442 488 -466 515 -25 28 -37 37 -26 20z"/>
<path d="M13315 11900 c-18 -19 -17 -20 3 -20 15 0 22 6 22 20 0 11 -2 20 -3
20 -2 0 -12 -9 -22 -20z"/>
<path d="M13237 11822 c-22 -24 -21 -32 3 -32 15 0 20 7 20 25 0 30 -2 30 -23
7z"/>
<path d="M13145 11720 c-18 -19 -17 -20 3 -20 15 0 22 6 22 20 0 11 -2 20 -3
20 -2 0 -12 -9 -22 -20z"/>
<path d="M13065 11640 c-18 -19 -17 -20 3 -20 15 0 22 6 22 20 0 11 -2 20 -3
20 -2 0 -12 -9 -22 -20z"/>
<path d="M10628 11610 c-8 -15 -388 -1120 -388 -1127 0 -2 64 -3 143 -4 l142
-1 -90 -22 c-87 -22 -89 -23 -60 -35 71 -27 72 -30 10 -30 l-60 -1 40 -26 c58
-39 65 -48 30 -40 -36 9 -46 19 118 -124 65 -56 120 -101 122 -98 3 3 4 346 3
764 -2 417 -6 752 -10 744z"/>
<path d="M14559 11177 c-389 -226 -705 -414 -703 -416 2 -2 491 -41 1086 -87
596 -45 1116 -85 1156 -88 60 -5 72 -3 72 9 0 13 4 13 26 -1 20 -14 120 -25
517 -56 271 -21 501 -37 513 -36 19 3 -1930 1088 -1952 1088 -5 0 -327 -186
-715 -413z"/>
<path d="M12975 11550 c-18 -19 -17 -20 3 -20 15 0 22 6 22 20 0 11 -2 20 -3
20 -2 0 -12 -9 -22 -20z"/>
<path d="M14085 11405 c-506 -85 -923 -154 -927 -154 -9 -1 -819 -833 -815
-838 3 -3 1205 316 1297 344 31 10 335 181 718 404 365 213 667 390 670 393 9
9 20 11 -943 -149z"/>
<path d="M6565 11511 c11 -10 303 -247 650 -525 l629 -506 1021 1 c561 0 1016
2 1010 4 -5 3 -743 234 -1640 515 -896 281 -1643 515 -1660 521 -30 10 -30 10
-10 -10z"/>
<path d="M12902 11478 c-16 -16 -15 -28 3 -28 8 0 15 9 15 20 0 23 -2 24 -18
8z"/>
<path d="M12823 11380 c-3 -11 -11 -20 -17 -20 -7 0 -73 -57 -148 -126 l-136
-125 -463 -657 c-255 -361 -497 -704 -537 -762 -41 -58 -67 -98 -59 -90 48 47
627 686 627 692 0 4 -16 10 -35 14 -19 3 -35 9 -35 13 0 4 31 15 69 25 87 23
138 69 143 131 3 38 5 40 39 43 36 3 36 4 43 55 3 29 6 85 6 125 l0 72 39 0
c40 0 40 0 43 43 3 42 3 42 46 45 l42 3 0 79 0 79 43 3 c42 3 42 3 45 46 3 42
3 42 42 42 39 0 39 0 42 43 3 41 4 42 41 45 36 3 37 4 37 43 l0 39 45 0 45 0
0 45 0 45 40 0 c29 0 40 4 40 15 0 11 -11 15 -41 15 -32 0 -42 -4 -46 -20z"/>
<path d="M12140 11300 c-256 -26 -473 -49 -484 -51 -14 -3 -76 -151 -281 -669
-145 -366 -262 -667 -260 -668 2 -2 318 292 702 655 898 847 832 783 808 782
-11 -1 -229 -23 -485 -49z"/>
<path d="M11625 10269 c-308 -292 -560 -536 -560 -542 0 -7 -6 -16 -13 -22 -9
-8 -12 -70 -10 -274 l3 -264 566 804 c556 791 583 830 577 828 -2 0 -255 -239
-563 -530z"/>
<path d="M13740 10342 l0 -341 53 -5 c101 -11 2287 -109 2293 -103 10 9 74
591 66 598 -4 3 -529 45 -1167 93 -638 48 -1179 90 -1202 93 l-43 5 0 -340z"/>
<path d="M13007 10496 c-352 -94 -633 -172 -625 -175 44 -15 1264 -307 1271
-304 4 2 7 148 7 323 0 175 -3 321 -7 323 -5 2 -295 -73 -646 -167z"/>
<path d="M16377 10460 c31 -30 1834 -1412 1837 -1408 2 1 -174 305 -389 673
l-392 670 -464 36 c-682 53 -614 50 -592 29z"/>
<path d="M16237 10413 c-14 -91 -60 -543 -56 -546 4 -4 1780 -776 1849 -804
19 -8 31 -10 25 -5 -5 5 -410 317 -900 692 -489 376 -895 687 -901 692 -8 6
-13 -4 -17 -29z"/>
<path d="M7025 10275 c-412 -62 -752 -113 -754 -114 -7 -2 692 -433 709 -438
12 -3 2752 646 2795 662 6 2 -442 3 -995 3 l-1005 0 -750 -113z"/>
<path d="M8582 10010 c-865 -207 -1577 -381 -1582 -386 -11 -13 -350 -544
-356 -558 -3 -9 265 -33 1073 -94 l1078 -82 1053 423 c579 233 1053 427 1053
431 0 4 -152 140 -338 302 -252 220 -339 290 -343 278 -5 -12 -13 -6 -33 25
-15 23 -28 41 -30 40 -1 -1 -710 -171 -1575 -379z"/>
<path d="M11705 9734 c-269 -294 -505 -552 -524 -574 l-33 -40 213 74 c118 41
378 132 579 201 201 70 559 194 795 275 237 81 512 176 612 211 101 35 179 66
175 69 -7 7 -1304 321 -1318 319 -5 0 -229 -241 -499 -535z"/>
<path d="M5120 9495 c-553 -349 -1006 -639 -1008 -643 -1 -4 78 -47 177 -96
123 -62 184 -87 197 -82 74 26 2384 1001 2384 1006 -1 8 -712 445 -729 447 -9
1 -468 -283 -1021 -632z"/>
<path d="M13278 9763 c-227 -79 -419 -145 -426 -148 -8 -3 29 -66 105 -181
l118 -177 5 119 5 119 43 3 c42 3 42 3 42 43 0 39 0 39 40 39 40 0 40 0 40 40
l0 39 88 3 87 3 3 43 3 42 85 0 84 0 0 40 0 40 118 0 c176 0 392 12 392 22 0
4 -20 8 -44 8 -35 0 -45 4 -49 20 -5 18 -14 20 -114 22 -59 1 -131 2 -160 3
-42 1 -128 -26 -465 -142z"/>
<path d="M14360 9863 c0 -18 10 -20 137 -26 75 -4 229 -7 342 -7 l207 0 -4
-40 -4 -40 588 1 589 0 -50 23 c-48 21 -84 24 -860 59 -445 21 -840 40 -877
43 -63 6 -68 4 -68 -13z"/>
<path d="M9920 9250 c-558 -225 -1021 -412 -1028 -417 -9 -6 36 -62 164 -203
98 -107 181 -196 186 -198 4 -2 50 25 100 60 129 89 128 89 78 28 -31 -37 -39
-52 -25 -46 11 4 340 126 730 271 391 145 736 273 768 285 l57 21 0 305 c0
167 -3 304 -7 303 -5 0 -465 -184 -1023 -409z"/>
<path d="M12357 9448 c-207 -73 -376 -135 -375 -139 4 -8 479 -373 499 -382 8
-4 21 -11 29 -17 14 -10 821 -222 826 -217 5 5 -582 886 -591 886 -5 0 -180
-59 -388 -131z"/>
<path d="M5928 8961 c-488 -306 -890 -560 -894 -563 -3 -4 332 142 745 324
l750 331 150 233 c82 129 147 234 143 233 -4 0 -406 -251 -894 -558z"/>
<path d="M16750 9505 c0 -10 10 -15 33 -14 17 0 25 3 17 6 -8 3 -23 10 -32 15
-13 6 -18 5 -18 -7z"/>
<path d="M16920 9426 c0 -12 10 -16 38 -16 38 1 32 10 -15 24 -17 6 -23 3 -23
-8z"/>
<path d="M5483 8998 l-973 -411 0 -203 c0 -112 2 -204 5 -204 6 0 1936 1209
1950 1221 6 6 6 9 0 8 -6 -1 -448 -186 -982 -411z"/>
<path d="M17178 9323 c7 -3 16 -2 19 1 4 3 -2 6 -13 5 -11 0 -14 -3 -6 -6z"/>
<path d="M11488 9147 c-207 -73 -377 -136 -378 -142 0 -5 59 -49 132 -97 373
-243 736 -477 744 -480 11 -3 424 417 424 430 0 9 -533 423 -542 421 -2 0
-173 -60 -380 -132z"/>
<path d="M17340 9250 c0 -5 10 -10 23 -10 18 0 19 2 7 10 -19 13 -30 13 -30 0z"/>
<path d="M17520 9166 c0 -12 10 -16 38 -16 38 1 32 10 -15 24 -17 6 -23 3 -23
-8z"/>
<path d="M13156 9135 c4 -8 8 -15 10 -15 2 0 4 7 4 15 0 8 -4 15 -10 15 -5 0
-7 -7 -4 -15z"/>
<path d="M17690 9090 c0 -17 7 -20 42 -20 47 0 47 3 -5 25 -36 15 -37 14 -37
-5z"/>
<path d="M17900 8990 c-44 -7 -43 -7 20 -8 45 -1 60 1 50 8 -8 5 -17 9 -20 8
-3 0 -25 -4 -50 -8z"/>
<path d="M6035 8739 c-286 -127 -752 -333 -1035 -458 l-515 -227 -342 -254
-343 -254 0 -54 0 -55 61 7 c34 3 91 6 125 6 l64 0 0 40 0 40 45 0 45 0 0 45
0 45 45 0 45 0 0 39 0 38 79 7 80 7 3 37 c3 36 4 37 46 40 42 3 42 3 42 43 l0
39 45 0 45 0 0 39 0 39 85 7 85 7 0 39 0 38 83 3 82 3 3 36 3 36 61 7 c34 3
90 6 124 6 36 0 64 4 64 10 0 6 -18 10 -40 10 -38 0 -40 2 -40 30 l0 30 64 0
c34 0 91 3 125 6 l61 7 0 38 0 39 85 0 85 0 0 39 0 39 85 7 85 7 0 39 0 39 90
0 90 0 0 39 0 39 85 7 85 7 0 39 0 39 85 0 85 0 0 40 0 40 64 0 c34 0 91 3
125 6 l61 7 0 38 0 39 91 0 92 0 -6 39 -5 38 151 7 c83 4 255 4 384 0 l234 -7
-3 -31 c-3 -28 -7 -32 -43 -37 -22 -3 191 -7 473 -8 l512 -1 0 -38 0 -38 93
-11 92 -10 74 46 74 46 -39 7 c-34 6 -2041 160 -2054 157 -3 0 -239 -104 -525
-230z"/>
<path d="M10465 7373 c-302 -867 -573 -1644 -601 -1725 l-52 -148 292 0 293 0
426 1638 c235 900 427 1643 427 1650 0 9 -220 162 -233 162 -1 0 -249 -710
-552 -1577z"/>
<path d="M10048 8624 c-773 -287 -787 -293 -825 -334 -267 -296 -1071 -1196
-1069 -1198 2 -1 507 292 1122 651 l1119 653 224 258 c122 141 221 259 220
260 -2 1 -358 -129 -791 -290z"/>
<path d="M13325 8880 c3 -5 8 -10 11 -10 2 0 4 5 4 10 0 6 -5 10 -11 10 -5 0
-7 -4 -4 -10z"/>
<path d="M10665 8576 l-200 -231 -477 -1027 c-263 -565 -478 -1033 -478 -1039
0 -19 233 -679 239 -679 7 0 1125 3200 1119 3205 -1 1 -93 -101 -203 -229z"/>
<path d="M8440 8559 l-345 -230 90 7 c50 3 285 20 524 37 l434 32 -173 190
c-95 105 -175 191 -179 192 -3 1 -161 -102 -351 -228z"/>
<path d="M12320 8633 c-85 -87 -179 -183 -209 -214 l-53 -57 637 -738 c350
-407 640 -739 646 -739 12 0 300 257 297 266 -7 15 -1153 1639 -1158 1639 -3
0 -75 -71 -160 -157z"/>
<path d="M12649 8708 c32 -46 280 -398 551 -783 271 -385 496 -704 501 -709 5
-5 14 -4 24 4 13 11 15 8 15 -22 0 -37 -8 -29 303 -307 l38 -34 -11 29 c-62
165 -655 1681 -661 1687 -6 8 -789 216 -811 217 -5 0 18 -37 51 -82z"/>
<path d="M3797 8183 c-130 -328 -235 -599 -233 -601 2 -1 163 192 357 430 194
238 381 467 416 510 l63 76 -175 91 c-97 50 -180 91 -184 91 -4 0 -114 -269
-244 -597z"/>
<path d="M13495 8620 c3 -5 8 -10 11 -10 2 0 4 5 4 10 0 6 -5 10 -11 10 -5 0
-7 -4 -4 -10z"/>
<path d="M4055 8038 c-198 -242 -364 -448 -369 -456 -5 -9 9 -3 30 13 22 17
190 140 372 275 l332 245 0 182 c0 101 -1 183 -2 183 -2 0 -165 -199 -363
-442z"/>
<path d="M13573 8411 c12 -33 23 -59 24 -58 1 2 -1 28 -4 60 -5 46 -9 57 -24
57 -17 0 -16 -4 4 -59z"/>
<path d="M8461 8270 c-366 -28 -507 -42 -516 -52 -18 -18 -807 -1230 -803
-1233 2 -1 93 60 202 136 167 115 202 143 214 173 13 32 16 35 27 20 11 -15
20 -11 91 36 89 60 1387 951 1393 956 9 8 -122 0 -608 -36z"/>
<path d="M11959 8236 c-146 -294 -467 -473 -784 -437 -44 5 -81 8 -83 6 -2 -2
-140 -527 -308 -1167 -294 -1125 -305 -1170 -334 -1378 -25 -182 -367 -2812
-416 -3192 -9 -69 -53 -562 -98 -1095 l-81 -968 160 -3 c306 -6 811 25 1215
74 2464 299 4735 1518 6358 3414 l124 145 -38 3 c-33 2 -6579 -348 -6746 -362
-45 -3 -58 -1 -58 10 0 8 1 14 3 15 1 0 1547 85 3434 187 2933 160 3435 190
3448 203 15 14 11 15 -37 12 -29 -2 -1549 -84 -3378 -183 -1829 -98 -3358
-182 -3397 -185 l-73 -6 0 31 c0 28 -2 30 -40 30 -43 0 -45 5 -40 83 1 26 -1
27 -44 27 l-45 0 0 893 c0 490 2 918 6 950 6 57 6 57 39 57 38 0 34 -13 39
130 1 19 3 95 3 168 l2 132 40 0 40 0 1 133 c1 72 0 149 -1 170 -2 37 -2 37
39 37 l41 0 1 48 c1 26 2 63 3 82 1 19 3 95 4 168 l2 132 40 0 c38 0 40 2 40
30 0 28 -2 30 -40 30 -22 0 -40 5 -40 10 0 6 18 10 40 10 l40 0 0 109 c0 59 3
136 6 170 7 61 7 61 39 61 l33 0 7 170 7 170 39 0 39 0 0 85 0 85 39 0 c40 0
40 0 43 43 l3 42 88 3 87 3 0 39 0 40 125 0 125 0 0 39 0 39 85 7 85 7 0 39 0
39 45 0 45 0 0 40 c0 34 3 40 23 41 12 1 80 4 151 8 l128 6 -132 155 c-72 85
-138 161 -145 169 -11 11 -18 2 -46 -53z"/>
<path d="M13620 8295 c0 -4 130 -341 149 -385 5 -14 58 -149 116 -300 59 -151
117 -302 130 -335 235 -598 283 -725 277 -725 -3 0 -21 14 -39 32 -18 17 -35
30 -37 27 -12 -12 -474 -1884 -466 -1887 6 -2 10 -19 10 -38 0 -28 -4 -34 -22
-35 -19 -1 -17 -3 7 -9 17 -4 85 -8 153 -9 l122 -1 0 45 0 45 39 0 38 0 7 61
c3 34 6 111 6 170 l0 109 40 0 c36 0 40 3 40 25 0 23 -4 25 -40 25 -29 0 -40
4 -40 15 0 11 11 15 38 15 l39 0 6 137 c4 75 7 171 7 215 l0 78 40 0 40 0 0
215 0 215 40 0 40 0 1 128 c1 70 2 174 2 232 1 58 1 171 -1 253 l-2 147 -40 0
-40 0 0 90 0 90 -39 0 -38 0 -7 61 c-3 34 -6 88 -6 120 l0 59 -40 0 -40 0 0
68 c0 99 -5 110 -49 114 l-36 3 -3 83 -3 82 -39 0 -40 0 0 85 0 85 -39 0 -38
0 -6 68 c-4 37 -7 95 -7 130 l0 62 -40 0 -39 0 -3 83 -3 82 -37 3 -36 3 -7 85
-7 84 -29 0 c-16 0 -29 -2 -29 -5z"/>
<path d="M8295 7670 c-357 -246 -651 -453 -653 -459 -4 -13 159 -361 169 -361
4 0 253 275 555 612 509 567 591 660 582 657 -2 -1 -295 -202 -653 -449z"/>
<path d="M8753 7337 c-342 -200 -629 -370 -639 -378 -9 -8 -69 -75 -131 -149
-94 -111 -193 -256 -551 -805 -734 -1127 -745 -1144 -738 -1185 3 -19 6 -49 6
-67 0 -30 2 -32 43 -36 l42 -4 -42 -1 c-42 -2 -43 -3 -43 -37 l0 -35 125 0
125 0 0 40 0 40 43 0 c35 0 44 4 44 18 -1 69 1 72 43 72 l40 0 1 43 c4 135 -1
122 47 125 l42 3 0 80 0 79 39 0 39 0 7 85 7 85 39 0 39 0 0 50 0 50 39 0 38
0 6 58 c4 32 4 67 1 79 -5 20 -1 22 37 25 l44 3 3 83 3 82 38 0 39 0 7 85 7
85 39 0 39 0 0 45 0 45 39 0 39 0 7 85 7 85 39 0 39 0 0 85 0 85 45 0 45 0 0
45 0 45 40 0 40 0 0 79 0 80 43 3 c42 3 42 3 45 46 3 42 3 42 42 42 39 0 39 0
42 43 3 42 3 42 46 45 42 3 42 3 42 43 l0 39 80 0 c47 0 80 4 80 10 0 6 -16
10 -35 10 -32 0 -35 3 -35 29 0 29 0 29 80 36 l80 7 0 39 0 39 88 2 c48 1 68
3 45 5 -41 4 -43 6 -43 38 l0 33 85 7 85 7 0 39 0 38 83 3 82 3 3 43 3 42 45
0 44 0 0 40 0 40 80 0 80 0 0 39 0 39 83 7 c45 3 161 5 257 3 l175 -3 3 -37
c3 -32 7 -38 26 -38 13 0 44 -3 69 -6 l45 -6 21 48 c25 55 19 64 -45 64 -58 0
-186 35 -268 72 -39 18 -108 61 -154 95 -46 35 -84 63 -85 63 -1 0 -282 -164
-624 -363z"/>
<path d="M7177 6143 c-218 -532 -395 -968 -394 -969 1 -2 226 341 500 761 471
724 496 766 485 790 -8 18 -18 25 -29 22 -15 -4 -16 -2 -7 13 10 15 -2 47 -68
184 -43 91 -82 166 -85 166 -3 0 -184 -435 -402 -967z"/>
<path d="M7240 6944 l-225 -155 -157 -777 c-87 -427 -156 -780 -155 -784 1 -4
175 413 386 928 211 514 382 937 380 939 -2 2 -105 -66 -229 -151z"/>
<path d="M13519 6920 c-117 -105 -134 -124 -131 -148 6 -56 252 -1458 261
-1487 5 -19 9 311 10 863 1 490 -1 892 -3 892 -2 0 -64 -54 -137 -120z"/>
<path d="M13741 6074 c0 -533 2 -964 4 -959 3 6 93 361 201 789 l196 779 -29
27 c-23 22 -151 137 -350 314 l-23 19 1 -969z"/>
<path d="M7849 6812 c-12 -11 -18 -21 -13 -24 5 -3 17 5 27 18 21 29 17 30
-14 6z"/>
<path d="M13260 6796 c0 -16 5 -26 15 -26 8 0 15 6 15 14 0 7 -7 19 -15 26
-13 11 -15 8 -15 -14z"/>
<path d="M9077 4297 l-387 -1812 169 -566 c93 -311 181 -606 196 -655 l28 -89
308 2115 c170 1163 309 2128 309 2145 0 28 -220 675 -230 675 -3 0 -179 -816
-393 -1813z"/>
<path d="M14223 5493 c9 -2 25 -2 35 0 9 3 1 5 -18 5 -19 0 -27 -2 -17 -5z"/>
<path d="M9785 5388 c-3 -13 -140 -954 -305 -2093 -166 -1138 -305 -2094 -309
-2123 l-8 -54 28 29 c88 89 749 849 749 861 0 15 426 3303 436 3365 l6 37
-296 0 -296 0 -5 -22z"/>
<path d="M8911 4003 c1 -34 2 -35 9 -13 11 36 11 50 0 50 -5 0 -10 -17 -9 -37z"/>
<path d="M8853 3833 c-20 -4 -23 -10 -23 -57 0 -85 -9 -116 -34 -116 -44 0
-51 -14 -54 -115 l-4 -95 -38 0 -38 0 -7 -59 -7 -59 -39 -6 c-35 -6 -39 -9
-39 -36 0 -28 -2 -30 -40 -30 -38 0 -40 -2 -40 -30 0 -17 -5 -30 -12 -30 -51
1 -5442 -292 -5472 -298 -31 -5 -36 -9 -25 -18 10 -7 783 32 2709 137 1482 81
2716 148 2743 148 35 1 47 -3 47 -14 0 -10 -10 -15 -34 -15 -18 0 -1234 -65
-2702 -145 -1468 -80 -2681 -145 -2696 -145 -24 0 -12 -15 102 -124 587 -564
1333 -1106 2095 -1521 911 -498 1969 -869 2988 -1048 l137 -24 4 21 c3 11 14
120 25 241 12 121 39 407 61 635 22 228 64 674 95 990 66 698 65 687 75 670
11 -17 4 -47 130 550 61 289 115 542 120 563 4 20 5 36 1 36 -3 -1 -16 -4 -28
-6z"/>
<path d="M8562 1183 c-56 -586 -101 -1067 -100 -1068 13 -12 524 -72 533 -63
3 3 18 210 32 459 l27 454 -189 635 c-104 349 -191 638 -194 642 -3 4 -52
-473 -109 -1059z"/>
<path d="M9550 1419 c-201 -228 -375 -425 -387 -440 -21 -25 -23 -46 -49 -479
-21 -348 -24 -454 -15 -459 14 -9 277 -28 509 -38 156 -6 162 -5 162 13 0 11
34 420 75 909 42 489 74 893 72 898 -1 5 -167 -177 -367 -404z"/>
</g>
</svg>
