<?xml version="1.0" encoding="utf-8"?>
<!-- Generator: Adobe Illustrator 24.2.3, SVG Export Plug-In . SVG Version: 6.00 Build 0)  -->
<svg version="1.1" id="Livello_1" xmlns="http://www.w3.org/2000/svg" xmlns:xlink="http://www.w3.org/1999/xlink" x="0px" y="0px"
	 viewBox="0 0 1080 1080" style="enable-background:new 0 0 1080 1080;" xml:space="preserve">
<g>
	<path d="M561.7,543c0,115.2,0,230.4,0,345.6c0,6.1-0.6,11.7-5.8,16.1c-8.4,6.9-19.7,6.5-27.4-1.4c-19.2-19.8-38.4-39.7-57.7-59.5
		c-37.2-38.1-74.5-76.1-111.7-114.3c-16.3-16.7-32.5-33.6-48.7-50.4c-3.2-3.4-6.8-5-11.7-5c-66.6,0.2-133.3,0.2-199.8,0.1
		c-3,0-6,0.1-8.9-0.2c-10.3-0.8-17.2-7.6-17.5-18c-0.2-8-0.1-16-0.1-24c0-65.9,0-131.8,0-197.6c0-17,6.1-23.2,23.2-23.2
		c65.5,0,131-0.2,196.5,0.2c10.1,0.1,16.9-3,23.6-10.1c22-23.3,44.5-46.3,66.8-69.3c16.4-16.9,32.7-33.7,49.2-50.6
		c14.4-14.7,29-29.3,43.4-44.1c17.7-18,35.2-36.2,52.7-54.4c8.6-9,20-10,28.8-1.4c2.8,2.7,4.2,7.2,4.9,11.2
		c0.9,4.3,0.2,8.9,0.2,13.4C561.7,318.6,561.7,430.8,561.7,543z"/>
	<g>
		<rect x="860.9" y="305.2" width="80" height="466.5"/>
		<rect x="713.9" y="305.2" width="80" height="466.5"/>
	</g>
</g>
</svg>
